<svg id="b" xmlns="http://www.w3.org/2000/svg" width="310.796" height="263.485" viewBox="0 0 310.796 263.485"><defs><style>.g{fill:#fcdc4a;}.g,.h,.i{stroke-width:0px;}.h{fill:#fff;}.i{fill:#211715;}</style></defs><g id="c"><g id="d"><path class="h" d="m156.966,54.802c-6.747,4.664-14.232,8.675-27.901,15.167-12.766,6.064-26.801,9.944-37.771,13.363-1.354-.763-2.876-1.063-4.235-1.02-4.094.128-5.845,2.336-6.6,3.633-2.253,3.872-2.186,11.023-.701,15.453,1.051,3.137,2.775,7.937,6.963,11.391,1.856,1.531,4.659,2.506,7.258,1.847,1.878,6.472,5.293,14.286,11.316,21.552,4.662,5.625,9.566,9.817,15.034,12.449-.022,2.069.027,3.036-.181,5.888-.101,1.381-.208,2.874-.72,4.222-.686,1.772-1.61,3.307-3.095,4.505-1.217.98-2.447,1.763-3.729,2.44.782,3.317,1.592,6.643,2.43,9.973,8.624,4.515,18.413,6.563,28.225,6.299,9.814.264,19.604-1.785,28.233-6.301.879-3.517,1.732-7.029,2.552-10.529-.927-.544-1.832-1.159-2.729-1.882-1.485-1.198-2.408-2.733-3.095-4.505-.512-1.348-.619-2.84-.72-4.222-.224-3.073-.15-3.958-.191-6.398,11.705-6.486,20.943-22.281,22.642-26.837.588-1.213,1.552-3.711,2.335-6.262.41.071.644.111.644.111,2.434.421,4.985-.502,6.722-1.912,4.214-3.421,5.975-8.207,7.051-11.336,1.519-4.419,1.642-11.569-.581-15.458-.745-1.303-2.478-3.524-6.571-3.684-2.493-.098-5.547.954-7.1,3.925-4.32-14.306-13.749-29.95-24.203-40.61-4.132,3.448-7.596,6.19-11.281,8.737Z"></path><path class="h" d="m112.374,220.379c-.4-4.861-.708-9.815,1.095-14.903,3.155-8.244,7.922-11.642,19.126-13.208-.495-2.084,1.393-4.06,3.64-4.913,2.16-.82,4.582-1.001,6.943-1.13,3.431-.188,6.872-.455,10.308-.354,3.436.101,6.958.757,9.726,2.489,4.286,2.682,6.015,7.405,6.804,11.877.466,2.639.697,5.308.69,7.977-.01,3.816-.505,7.635-.202,11.443.506,6.365,3.281,12.593,7.912,17.622-.902,5.05-2.599,9.674-5.171,15.602-5.203-.535-12.48-1.284-12.48-1.284-4.586-.907-8.775-2.496-12.123-4.877l-1.606.842-24.74,12.969c-1.44.975-3.38.661-4.467-.696-3.281-4.096-6.181-8.412-8.664-12.896-.647-1.167-1.278-2.403-1.2-3.691.093-1.529,1.16-2.868,1.973-4.235,3.638-6.113,2.958-12.294,2.436-18.633Z"></path><path class="h" d="m38.259,222.205c13.15-25.29,36-45.55,62.66-55.8,3.12-2.43,6.39-4.63,9.04-6.36.58-.36,1.32-.06,1.47.6.16.72.33,1.45.5,2.17,4.59,19.84,10.22,40.1,16.45,59.39H38.259Z"></path><path class="h" d="m248.259,222.202c-13.15-25.27-35.99-45.54-62.629-55.784-3.136-2.436-6.423-4.649-9.081-6.372-.555-.366-1.319-.063-1.465.596-4.667,20.531-10.485,41.565-16.942,61.562l90.118-.003Z"></path><path class="h" d="m195.169,113.507c-4.048,0-6.846,2.847-6.846,6.179,0,3.728,2.858,6.295,6.846,6.295,4.142,0,6.846-2.591,6.846-6.295,0-3.354-2.813-6.179-6.846-6.179Z"></path><g id="e"><path class="g" d="m213.577,97.553c-2.739-13.225-4.545-26.617-6.493-39.975-1.952-13.381-7.519-27.684-17.441-37.191-3.964-3.798-5.338-5.731-9.19-7.985,0,0-2.23-1.305-4.46-2.611-2.215-.898-4.43-1.796-4.43-1.796-8.235-3.338-16.812-5.554-28.995-5.554-19.975,0-37.754,10.29-45.643,17.844-21.231,20.326-18.576,50.225-23.401,76.739-1.916,11.057-3.157,22.601,2.116,32.394,6.038,11.214,24.836,17.495,40.177,17.495l1.429.018c-4.252-2.607-8.182-6.198-11.949-10.743-6.023-7.266-9.438-15.081-11.316-21.552-2.598.659-5.402-.317-7.258-1.847-4.187-3.453-5.911-8.253-6.963-11.391-1.485-4.43-1.551-11.581.701-15.453.755-1.297,2.505-3.505,6.599-3.633,1.359-.043,2.881.257,4.235,1.02,10.97-3.419,25.005-7.299,37.771-13.363,13.669-6.493,21.154-10.503,27.901-15.167,3.685-2.547,7.15-5.289,11.281-8.737,10.455,10.66,19.884,26.304,24.203,40.61,1.553-2.971,4.607-4.023,7.1-3.925,4.093.16,5.826,2.381,6.571,3.684,2.223,3.889,2.1,11.04.581,15.458-1.076,3.129-2.837,7.916-7.051,11.336-.417.338-.883.646-1.38.917,2.298,1.017,3.744,3.14,3.744,5.541,0,3.704-2.704,6.295-6.846,6.295-2.657,0-4.807-1.144-5.95-3.007-2.749,5.749-10.84,18.476-20.919,24.577,15.083-.062,31.79-3.305,41.14-15.7,7.902-10.476,6.619-22.309,4.137-34.297Z" style="fill: rgb(217, 215, 203);"></path><path class="g" d="m132.595,192.268c-.495-2.084,1.393-4.06,3.64-4.913,2.16-.82,4.582-1.001,6.943-1.13,3.431-.188,6.872-.455,10.308-.354s6.958.757,9.726,2.489c1.642,1.027,2.906,2.356,3.888,3.853,1.523-5.509,3.007-11.03,4.394-16.549-8.629,4.516-18.42,6.566-28.235,6.302-9.813.264-19.602-1.785-28.229-6.299,1.712,6.805,3.553,13.617,5.467,20.396,2.933-1.888,6.786-3.051,12.099-3.794Z" style="fill: rgb(217, 215, 203);"></path><path class="g" d="m296.54,109.957c-.155.667-1.099.679-1.271.016-.719-2.771-1.835-6.082-3.529-8.055-2.068-2.407-5.055-3.429-7.825-4.024-.687-.148-.685-1.133.003-1.279,2.742-.581,5.766-1.605,7.776-3.775,1.914-2.065,2.994-6.222,3.599-9.042.147-.683,1.116-.694,1.278-.015.674,2.82,1.873,6.988,3.79,9.057,1.99,2.148,4.867,3.173,7.526,3.757.69.152.683,1.141-.01,1.28-2.839.569-5.951,1.543-8.018,3.95-1.694,1.972-2.668,5.334-3.319,8.13Z" style="fill: rgb(217, 215, 203);"></path><path class="g" d="m261.782,152.908c-.214.92-1.515.936-1.752.022-.991-3.82-2.529-8.383-4.865-11.103-2.85-3.318-6.968-4.727-10.785-5.547-.948-.204-.944-1.562.004-1.763,3.78-.801,7.947-2.212,10.718-5.203,2.638-2.847,4.127-8.576,4.961-12.463.202-.942,1.538-.957,1.761-.021.928,3.887,2.581,9.632,5.224,12.483,2.744,2.96,6.709,4.373,10.373,5.178.951.209.942,1.573-.013,1.764-3.913.784-8.203,2.127-11.051,5.444-2.335,2.719-3.677,7.353-4.575,11.206Z" style="fill: rgb(217, 215, 203);"></path><path class="g" d="m20.499,123.6c-.214.92-1.515.936-1.752.022-.991-3.82-2.529-8.383-4.865-11.103-2.85-3.318-6.968-4.727-10.785-5.547-.948-.204-.944-1.562.004-1.763,3.78-.801,7.947-2.212,10.718-5.203,2.638-2.847,4.127-8.576,4.961-12.463.202-.942,1.538-.957,1.761-.021.928,3.887,2.581,9.632,5.224,12.483,2.744,2.96,6.709,4.373,10.373,5.178.951.209.942,1.573-.013,1.764-3.913.784-8.203,2.127-11.051,5.444-2.335,2.719-3.677,7.353-4.575,11.206Z" style="fill: rgb(217, 215, 203);"></path></g></g><g id="f"><path class="i" d="m166.55,44.368c-6.321,5.27-12.789,10.029-20.061,14.108-10.4,5.833-21.286,11.081-32.517,15.094-6.601,2.359-13.314,4.383-20.016,6.433-2.945.901-1.689,5.536,1.276,4.629,12.531-3.833,24.96-7.766,36.808-13.431,9.022-4.313,18.082-8.734,26.316-14.451,4.017-2.789,7.834-5.858,11.588-8.988.996-.831.858-2.536,0-3.394-.986-.986-2.395-.833-3.394,0h0Z"></path><path class="i" d="m133.965,127.066c3.064,1.618,6.364,2.294,9.828,2.272,3.51-.023,7.07-.708,9.883-2.9,1.023-.797.837-2.557,0-3.394-1.01-1.01-2.368-.799-3.394,0,.718-.559.122-.105-.062.013-.199.128-.404.245-.613.355-.157.082-.892.382-.267.148-.281.106-.56.215-.846.307-1.83.588-3.064.682-5.019.671-.503-.003-1.005-.02-1.506-.054-.23-.016-.46-.034-.69-.057.004,0-.797-.107-.38-.042-.747-.115-1.487-.274-2.211-.491-.31-.093-.612-.204-.917-.308-.099-.034-.195-.086-.296-.115.599.172.204.091.038.013-.379-.179-.753-.365-1.124-.561-1.146-.605-2.61-.291-3.284.861-.634,1.084-.289,2.676.861,3.284h0Z"></path><path class="i" d="m166.55,47.762c8.75,8.968,15.807,19.886,20.655,31.431.502,1.194,1.587,2.051,2.952,1.676,1.126-.309,2.181-1.75,1.676-2.952-5.183-12.339-12.524-23.95-21.89-33.549-2.161-2.215-5.554,1.181-3.394,3.394h0Z"></path><path class="i" d="m161.757,152.849c7.747-1.785,14.18-7.432,19.236-13.316,3.995-4.65,7.628-9.813,10.298-15.347.563-1.167.32-2.593-.861-3.284-1.051-.615-2.718-.311-3.284.861-2.439,5.055-5.677,9.822-9.306,14.092-4.58,5.391-10.268,10.731-17.36,12.365-3.009.693-1.735,5.322,1.276,4.629h0Z"></path><path class="i" d="m190.934,110.687c-.183.878-.402,1.748-.65,2.61-.1.319-.114.638-.043.957.014.319.109.617.285.892.151.28.357.504.618.673.232.212.504.355.816.43l.638.086c.433-.001.837-.111,1.211-.328.53-.341.926-.819,1.103-1.434.248-.862.467-1.732.65-2.61.1-.319.114-.638.043-.957-.014-.319-.109-.617-.285-.892-.151-.28-.357-.504-.618-.673-.232-.212-.504-.355-.816-.43l-.638-.086c-.433.001-.837.111-1.211.328-.507.327-.976.824-1.103,1.434h0Z"></path><path class="i" d="m90.675,111.391c1.658,7.461,4.664,14.693,8.884,21.07,4.543,6.863,10.524,13.294,17.776,17.326,3.666,2.038,7.667,3.425,11.814,4.053,1.28.194,2.58-.322,2.952-1.676.312-1.134-.387-2.757-1.676-2.952-14.952-2.263-26.139-15.262-31.789-28.572-1.439-3.39-2.534-6.931-3.333-10.524-.67-3.014-5.299-1.739-4.629,1.276h0Z"></path><path class="i" d="m94.459,82.728c-3.254-2.977-8.032-3.622-12.02-1.755-2.961,1.386-4.688,4.256-5.462,7.336-1.812,7.208-.027,15.427,4.032,21.592,2.734,4.152,7.095,7.969,12.419,7.253,1.284-.173,2.4-.98,2.4-2.4,0-1.163-1.106-2.574-2.4-2.4-6.277.843-9.688-6.552-11.314-11.471-.929-2.809-1.176-5.789-.935-8.731.115-1.401.38-2.864.929-4.165.166-.393.39-.752.602-1.121.081-.141.327-.462.083-.153.163-.207.343-.403.53-.588,1.84-1.821,5.618-1.946,7.742-.002,2.275,2.082,5.679-1.303,3.394-3.394h0Z"></path><path class="i" d="m195.526,86.512c1.221-1.097,2.841-1.492,4.452-1.332,1.424.141,2.512.701,3.375,1.512.105.11.207.223.305.339-.151-.206-.149-.203.006.01.136.196.264.398.382.605.325.566.545,1.15.729,1.777.489,1.667.648,3.377.645,5.109-.006,3.286-.759,6.387-2.025,9.407-1.312,3.132-3.323,6.413-6.348,8.133-2.685,1.527-.269,5.675,2.423,4.145,3.289-1.87,5.782-5.132,7.438-8.48,1.371-2.773,2.503-5.779,2.957-8.847.858-5.804.58-14.219-5.425-17.314-4.01-2.068-8.962-1.465-12.308,1.542-2.302,2.069,1.101,5.455,3.394,3.394h0Z"></path><path class="i" d="m142.654,103.808c.432,1.649.847,3.323,1.095,5.011l-.086-.638c.029.231.042.459.019.692l.086-.638c-.016.108-.04.208-.076.311l.242-.573c-.032.073-.066.134-.11.2l.375-.486c-.052.063-.1.111-.164.161l.486-.375c-.127.081-.26.147-.397.21l.573-.242c-.218.091-.435.158-.669.195l.638-.086c-.211.025-.417.023-.628-.001l.638.086c-.237-.033-.469-.091-.706-.122-.67-.09-1.239-.115-1.849.242-.498.291-.973.862-1.103,1.434-.14.614-.11,1.304.242,1.849.312.484.835,1.022,1.434,1.103.524.071,1.032.204,1.565.228.809.035,1.564-.211,2.287-.541.89-.407,1.584-1.197,1.82-2.156.2-.811.113-1.53-.024-2.342-.273-1.614-.646-3.214-1.061-4.798-.318-1.214-1.729-2.072-2.952-1.676-1.25.404-2.018,1.651-1.676,2.952h0Z"></path><path class="i" d="m115.995,89.662c-.837,2.719-.291,8.975,4.86,9.508,6.809-.041,7.172-7.604,4.879-11.16-1.877-2.912-7.395-4.122-9.74,1.653Z"></path><path class="i" d="m170.523,89.662c.837,2.719.292,8.975-4.86,9.507-6.809-.041-7.172-7.604-4.88-11.16,1.877-2.911,7.395-4.122,9.74,1.653Z"></path><path class="i" d="m113.81,167.767c1.766-.937,3.567-2.07,4.974-3.502,1.332-1.356,2.227-3.006,2.911-4.762.718-1.842.79-3.908.915-5.861.088-1.382.11-2.763.119-4.148.008-1.297-1.109-2.4-2.4-2.4-1.308,0-2.392,1.098-2.4,2.4-.007,1.168-.018,2.335-.081,3.502-.091,1.692-.109,3.18-.593,4.703-.206.648-.353.957-.759,1.672-.438.771-.588.973-1.106,1.499-1.134,1.152-2.584,1.999-4.003,2.752-1.145.607-1.496,2.198-.861,3.284.678,1.159,2.135,1.471,3.284.861h0Z"></path><path class="i" d="m164.919,149.495c.008,1.31.026,2.616.105,3.924.112,1.853.177,3.804.749,5.583.562,1.747,1.458,3.364,2.638,4.765,1.192,1.417,2.843,2.508,4.427,3.44,1.117.657,2.631.255,3.284-.861.659-1.126.259-2.624-.861-3.284-1.306-.769-2.397-1.468-3.378-2.6-.081-.094-.326-.428-.139-.165-.091-.128-.181-.258-.267-.391-.194-.3-.372-.61-.537-.927-.074-.143-.145-.287-.214-.432-.048-.102-.221-.505-.101-.211-.15-.369-.274-.745-.372-1.13-.34-1.337-.373-2.69-.456-4.273-.06-1.146-.07-2.292-.077-3.44-.008-1.255-1.098-2.458-2.4-2.4-1.294.058-2.408,1.055-2.4,2.4h0Z"></path><path class="i" d="m195.169,111.107c-3.915.048-7.464,2.206-8.815,5.956-1.271,3.529.22,7.53,3.196,9.658,2.958,2.116,7.301,2.156,10.47.509,3.331-1.731,4.837-5.522,4.234-9.121-.725-4.328-4.935-6.953-9.086-7.003-1.256-.015-2.458,1.115-2.4,2.4.059,1.313,1.054,2.384,2.4,2.4.206.002.41.016.616.022.454.014.054-.005-.043-.02.318.047.632.114.942.201.18.051.355.114.533.172.414.137.008.004-.066-.033.32.16.633.32.931.519.039.026.449.379.177.121-.28-.266.126.124.15.146.15.14.509.42.579.618-.152-.434-.139-.204-.028-.013.07.12.15.234.219.355.065.115.114.265.192.37.076.163.051.099-.075-.191.041.104.079.208.113.314.042.129.277.732.204.814-.003.003-.044-.626-.02-.132.009.172.022.343.022.516,0,.12-.003.241-.009.361-.01.196.087.649.017.061.032.269-.126.652-.203.907-.02.065-.077.367-.132.391.129-.055.225-.433.016-.052-.129.235-.262.463-.402.692-.243.398.059.024.04-.04.006.02-.18.205-.211.239-.109.117-.224.229-.342.337-.059.054-.12.107-.183.158-.137.113-.081.07.166-.127-.049.148-.55.356-.7.437-.134.072-.308.189-.456.222.057-.013.514-.178.091-.051-.287.086-.568.18-.86.246-.182.041-.365.072-.548.102.421-.069.123-.02-.129-.004-.331.021-.664.025-.995.01-.129-.006-.258-.02-.387-.025-.632-.026.497.112-.111-.014-.298-.062-.593-.124-.885-.214-.113-.035-.224-.078-.337-.112-.249-.096-.22-.081.088.046-.105-.047-.208-.096-.31-.148-.252-.129-.484-.284-.724-.432-.233-.144-.146.022.088.076-.106-.025-.291-.252-.369-.328-.078-.076-.155-.154-.229-.234-.028-.03-.397-.425-.128-.132.26.284-.069-.108-.099-.155-.09-.138-.174-.279-.251-.424l-.076-.147c-.111-.237-.098-.198.038.118-.048-.053-.089-.237-.116-.316-.092-.273-.148-.552-.215-.831-.138-.569.006.529-.007-.067-.003-.121-.016-.243-.019-.365-.004-.176-.003-.352.008-.528.005-.085.011-.17.021-.254.019-.186.01-.113-.028.219-.087-.102.224-.861.257-.969.14-.45-.054.103-.053.111-.023-.124.247-.481.312-.588.058-.095.123-.186.181-.281.235-.393-.329.319.089-.11.219-.225.44-.44.67-.654-.439.409-.05.038.069-.042.146-.098.297-.191.451-.277.123-.069.286-.121.398-.206.16-.074.107-.055-.157.059.115-.046.23-.088.347-.128.363-.123.733-.204,1.108-.282.137-.029.424-.004-.049.005.273-.005.545-.037.819-.04,1.255-.015,2.459-1.093,2.4-2.4-.058-1.287-1.055-2.416-2.4-2.4Z"></path><path class="i" d="m193.702,29.412c6.151,7.482,9.071,16.697,10.653,26.117,1.901,11.322,3.218,22.731,5.248,34.036,1.73,9.638,4.851,19.749,2.911,29.599-1.783,9.055-7.938,16.154-16.022,20.32-8.615,4.44-18.634,5.617-28.202,5.671-3.088.018-3.094,4.818,0,4.8,9.34-.053,18.862-1.211,27.518-4.882,9.024-3.827,16.576-10.694,20.036-20.007,3.749-10.09,1.477-20.835-.53-31.02-2.359-11.974-4.022-24.069-5.77-36.143-.814-5.624-1.872-11.225-3.799-16.586-2.01-5.592-4.874-10.708-8.648-15.299-.824-1.002-2.54-.854-3.394,0-.991.991-.826,2.39,0,3.394h0Z"></path><path class="i" d="m18.184,122.962v-.13c.287-.287.574-.574.861-.861.517-.143,1.017-.076,1.499.2l.617,1.059c-.846-2.066-1.247-4.318-2.107-6.399-.919-2.225-2.005-4.347-3.611-6.161-1.516-1.713-3.48-3.068-5.556-4.012-1.06-.482-2.146-.908-3.258-1.253-.771-.239-2.459-.509-2.776-.746l.861.861c.097.381.098.762.003,1.143l-.861.861c.378-.281,2.211-.556,3.042-.816,1.198-.376,2.372-.837,3.509-1.369,2.273-1.065,4.372-2.598,5.9-4.602,1.425-1.87,2.351-4.079,3.108-6.292.366-1.071.684-2.158.969-3.252.15-.573.29-1.149.424-1.726.05-.218.1-.436.148-.655.037-.168.252-.667.135-.509l-.861.861c-.511.134-1.006.069-1.484-.195l-.617-1.059c.791,2.033,1.124,4.274,1.868,6.341.783,2.174,1.7,4.377,3.088,6.241,1.464,1.967,3.419,3.527,5.6,4.641,1.174.6,2.411,1.101,3.663,1.514.823.272,2.655.569,3.034.856l-.861-.861c-.097-.379-.1-.76-.009-1.141l.861-.861c.174-.127-.097.045-.243.068-.3.047-.603.129-.899.198-.486.112-.969.234-1.449.368-1.139.318-2.244.716-3.332,1.179-2.163.92-4.212,2.205-5.811,3.948-3.121,3.405-4.423,8.172-5.455,12.561-.707,3.004,3.92,4.287,4.629,1.276.854-3.632,1.786-7.97,4.491-10.729,1.323-1.349,3.003-2.323,4.77-2.972.945-.347,1.913-.631,2.89-.874.961-.239,1.987-.331,2.831-.878,2.25-1.457,1.691-4.951-.763-5.819-1.918-.678-3.901-.971-5.748-1.89-1.649-.821-3.257-1.891-4.344-3.408s-1.829-3.297-2.444-5.057c-.64-1.833-1.044-3.717-1.604-5.57-.681-2.255-3.38-3.51-5.328-1.835-1.475,1.268-1.551,3.818-2.05,5.605-.515,1.843-1.105,3.684-1.998,5.383-1.844,3.511-5.315,5.207-9.016,6.212-.925.251-2.029.334-2.868.825-1.049.614-1.668,1.774-1.631,2.976.084,2.771,2.726,3.066,4.807,3.665,2.064.594,4.119,1.432,5.801,2.798,1.773,1.44,2.922,3.375,3.817,5.45.459,1.065.837,2.168,1.186,3.274s.531,2.356,1.041,3.399c.591,1.208,1.741,1.918,3.09,1.89,1.535-.031,2.555-1.096,3.069-2.445.461-1.212-.511-2.632-1.676-2.952-1.351-.371-2.489.46-2.952,1.676Z"></path><path class="i" d="m259.468,152.27v-.13c.287-.287.574-.574.861-.861.517-.143,1.017-.076,1.499.2l.617,1.059c-.846-2.066-1.247-4.318-2.107-6.399-.919-2.225-2.005-4.347-3.611-6.161-1.516-1.713-3.48-3.068-5.556-4.012-1.06-.482-2.146-.908-3.258-1.253-.771-.239-2.459-.509-2.776-.746l.861.861c.097.381.098.762.003,1.143l-.861.861c.378-.281,2.211-.556,3.042-.816,1.198-.376,2.372-.837,3.509-1.369,2.273-1.065,4.372-2.598,5.9-4.602,1.425-1.87,2.351-4.079,3.108-6.292.366-1.071.684-2.158.969-3.252.15-.573.29-1.149.424-1.726.05-.218.1-.436.148-.655.037-.168.252-.667.135-.509l-.861.861c-.511.134-1.006.069-1.484-.195l-.617-1.059c.791,2.033,1.124,4.274,1.868,6.341.783,2.174,1.7,4.377,3.088,6.241,1.464,1.967,3.419,3.527,5.6,4.641,1.174.6,2.411,1.101,3.663,1.514.823.272,2.655.569,3.034.856l-.861-.861c-.097-.379-.1-.76-.009-1.141l.861-.861c.174-.127-.097.045-.243.068-.3.047-.603.129-.899.198-.486.112-.969.234-1.449.368-1.139.318-2.244.716-3.332,1.179-2.163.92-4.212,2.205-5.811,3.948-3.121,3.405-4.423,8.172-5.455,12.561-.707,3.004,3.92,4.287,4.629,1.276.854-3.632,1.786-7.97,4.491-10.729,1.323-1.349,3.003-2.323,4.77-2.972.945-.347,1.913-.631,2.89-.874.961-.239,1.987-.331,2.831-.878,2.25-1.457,1.691-4.951-.763-5.819-1.918-.678-3.901-.971-5.748-1.89-1.649-.821-3.257-1.891-4.344-3.408s-1.829-3.297-2.444-5.057c-.64-1.833-1.044-3.717-1.604-5.57-.681-2.255-3.38-3.51-5.328-1.835-1.475,1.268-1.551,3.818-2.05,5.605-.515,1.843-1.105,3.684-1.998,5.383-1.844,3.511-5.315,5.207-9.016,6.212-.925.251-2.029.334-2.868.825-1.049.614-1.668,1.774-1.631,2.976.084,2.771,2.726,3.066,4.807,3.665,2.064.594,4.119,1.432,5.801,2.798,1.773,1.44,2.922,3.375,3.817,5.45.459,1.065.837,2.168,1.186,3.274s.531,2.356,1.041,3.399c.591,1.208,1.741,1.918,3.09,1.89,1.535-.031,2.555-1.096,3.069-2.445.461-1.212-.511-2.632-1.676-2.952-1.351-.371-2.489.46-2.952,1.676Z"></path><path class="i" d="m294.468,108.746l.085-.075,1.059-.617.595.009,1.059.617c.257.413.297.387.121-.078-.052-.188-.105-.375-.16-.562-.13-.446-.267-.89-.415-1.331-.279-.833-.598-1.65-.945-2.458-.676-1.573-1.515-3.065-2.693-4.323-1.171-1.251-2.65-2.235-4.211-2.926-1.506-.667-3.133-.904-4.635-1.513l1.059.617.328.51v1.276l-.326.511-1.059.617c.76-.305,1.62-.406,2.406-.648.932-.287,1.847-.644,2.731-1.055,1.735-.808,3.338-1.973,4.509-3.495,1.092-1.418,1.8-3.075,2.384-4.758.544-1.569.724-3.325,1.338-4.851l-.617,1.059-.516.323h-1.276c-.822-1.068-1.115-1.251-.879-.549.055.219.111.439.169.657.091.345.186.69.285,1.033.243.841.512,1.677.822,2.496.615,1.626,1.324,3.207,2.391,4.589,1.113,1.44,2.605,2.583,4.233,3.389.879.435,1.805.809,2.738,1.112.794.257,1.661.368,2.427.683l-1.059-.617-.33-.507v-1.276l.321-.513,1.059-.617c-1.54.6-3.206.802-4.75,1.467-1.589.684-3.101,1.622-4.291,2.895-2.399,2.566-3.412,6.145-4.2,9.483-.709,3.004,3.918,4.286,4.629,1.276.665-2.816,1.384-6.294,3.816-8.16.984-.755,2.148-1.253,3.323-1.617,1.591-.494,3.565-.502,4.445-2.156.944-1.775-.084-3.795-1.914-4.38-1.407-.45-2.817-.692-4.14-1.396-2.587-1.377-3.703-3.672-4.568-6.361-.419-1.303-.558-3.004-1.269-4.176-1.04-1.714-3.513-1.934-4.862-.473-.927,1.005-1.003,2.683-1.351,3.948-.398,1.451-.853,2.906-1.595,4.222-1.385,2.456-4.129,3.467-6.74,4.091-1.81.433-3.377,1.664-2.914,3.753.415,1.872,1.973,2.214,3.588,2.654,3.267.891,5.552,2.615,6.89,5.762.337.793.609,1.617.863,2.439.269.869.402,1.9.885,2.681,1.201,1.943,4.338,1.883,5.299-.259.531-1.182.341-2.581-.861-3.284-1.026-.6-2.75-.327-3.284.861Z"></path><path class="i" d="m131.219,190.061c-4.329.668-8.87,1.731-12.508,4.298-3.325,2.346-5.532,5.601-7.088,9.318-2.225,5.316-2.112,11.055-1.65,16.692.422,5.153,1.041,10.591-1.087,15.477-1.139,2.614-3.394,4.803-3.322,7.828.073,3.044,2.39,6.09,3.947,8.579,1.69,2.701,3.528,5.303,5.478,7.822.83,1.072,1.576,2.113,2.801,2.76,1.291.681,2.825.825,4.229.441,1.512-.413,3.105-1.523,4.483-2.245l7.831-4.105c4.638-2.431,9.275-4.862,13.913-7.293,2.737-1.435.313-5.579-2.423-4.145-8.037,4.213-16.073,8.426-24.11,12.639-.342.179-.92.598-1.29.598-.633,0-1.119-.861-1.474-1.314-.915-1.168-1.792-2.366-2.644-3.581-1.657-2.363-3.203-4.804-4.627-7.314-.518-.914-1.454-2.148-1.315-3.269.133-1.072,1.112-2.125,1.645-3.023,2.787-4.698,3.397-10.064,3.099-15.425-.278-4.997-1.187-10.124-.275-15.105.762-4.166,2.626-8.121,5.754-10.77,1.055-.893,2.972-1.922,4.456-2.462,2.405-.875,4.927-1.383,7.451-1.772,1.282-.198,1.991-1.806,1.676-2.952-.376-1.369-1.666-1.875-2.952-1.676h0Z"></path><path class="i" d="m178.518,233.709c-3.484-4.671-5.589-10.103-5.705-15.958-.063-3.183.286-6.356.293-9.538.007-3.113-.299-6.251-.905-9.305-1.016-5.119-3.472-10.124-8.128-12.832-5.378-3.128-11.974-2.761-17.952-2.422-3.474.197-7.228.132-10.524,1.386-2.877,1.095-5.761,3.611-5.452,6.985.118,1.291,1.018,2.4,2.4,2.4,1.207,0,2.519-1.102,2.4-2.4-.184-2.01,2.701-2.697,4.236-2.998,2.736-.537,5.635-.513,8.413-.653,4.925-.247,10.936-.666,15.103,2.527,3.474,2.662,4.659,7.242,5.229,11.372.791,5.727-.247,11.417.161,17.144.431,6.059,2.66,11.851,6.286,16.714.774,1.037,2.076,1.567,3.284.861,1.023-.598,1.64-2.239.861-3.284h0Z"></path><path class="i" d="m155.226,192.451c-3.682-.153-7.367-.152-11.048.025-3.395.162-7.071.204-10.367,1.099-2.502.679-4.779,2.199-5.489,4.811-.779,2.865.844,5.405,3.282,6.803,2.684,1.54,5.105-2.606,2.423-4.145-.265-.152-.755-.456-.847-.565-.112-.133-.171-.302-.267-.444.193.285-.015-.281.007-.012-.008-.103.009-.231.032-.362.074-.417-.08.087.026-.125.063-.125.135-.242.206-.363.132-.227-.263.214.052-.068.038-.034.333-.297.247-.232.196-.148.717-.39,1.061-.509,1.107-.385,2.282-.516,3.441-.632,5.728-.57,11.49-.72,17.242-.481,3.089.128,3.083-4.672,0-4.8h0Z"></path><path class="i" d="m156.499,202.139c-3.755-.209-7.51-.418-11.265-.627-3.474-.193-6.947-.395-10.416-.002-3.148.356-6.277,1.295-7.621,4.462-1.264,2.979.131,5.933,2.359,8.01,2.258,2.104,5.66-1.283,3.394-3.394-.641-.597-1.347-1.454-1.455-2.074-.079-.454.034-.786.443-1.215.632-.664,1.748-.843,2.647-.962,1.394-.184,2.811-.25,4.216-.262,5.889-.051,11.82.538,17.697.865,3.086.172,3.077-4.629,0-4.8h0Z"></path><path class="i" d="m153.88,212.626c-4.048-.485-8.098-.949-12.158-1.332-4.451-.42-9.76-1.519-13.482,1.676-3.637,3.123-1.84,8.315,1.935,10.328,1.785.952,3.894,1.179,5.86,1.526,2.236.395,4.477.761,6.709,1.176,1.273.237,2.588-.352,2.952-1.676.321-1.168-.395-2.714-1.676-2.952-3.433-.639-6.918-1.087-10.323-1.871-1.013-.233-2.545-.842-2.671-2.046-.103-.987,1.265-1.508,2.165-1.721,1.745-.413,3.682-.075,5.443.079,1.826.16,3.652.33,5.476.513,3.261.328,6.516.71,9.77,1.099,1.289.154,2.4-1.214,2.4-2.4,0-1.425-1.107-2.245-2.4-2.4h0Z"></path><path class="i" d="m140.173,225.271c-2.299,2.88-2.047,7.277-1.388,10.712.638,3.329,2.218,6.399,4.382,8.986,4.201,5.022,10.691,7.673,16.961,8.941,1.269.257,2.592-.366,2.952-1.676.325-1.184-.4-2.694-1.676-2.952-5.111-1.034-10.29-2.914-13.982-6.748-1.636-1.7-2.87-3.758-3.559-6.016-.5-1.638-.678-3.256-.662-4.963.007-.767-.088-2.318.367-2.888.808-1.012.989-2.406,0-3.394-.838-.838-2.581-1.018-3.394,0h0Z"></path><path class="i" d="m176.559,233.393c-.453,4.458-1.647,8.775-3.22,12.962-1.552,4.131-3.229,8.09-5.828,11.674-.761,1.05-.18,2.675.861,3.284,1.212.709,2.521.192,3.284-.861,2.831-3.906,4.621-8.322,6.312-12.821,1.734-4.615,2.893-9.33,3.391-14.238.131-1.291-1.197-2.4-2.4-2.4-1.407,0-2.268,1.105-2.4,2.4h0Z"></path><path class="i" d="m115.814,144.514c-7.872-.024-15.814-1.539-23.106-4.524-6.352-2.601-12.552-6.618-15.585-12.934-4.003-8.336-3.109-18.174-1.685-27.016,1.325-8.228,2.418-16.444,3.346-24.727,1.753-15.66,3.894-32.033,13.017-45.348,8.735-12.75,23.573-20.672,38.497-23.826,8.941-1.89,18.357-1.647,27.313.05,9.092,1.723,18.14,5.109,25.334,11.068,1.788,1.481,3.449,3.103,4.991,4.839,2.055,2.315,5.439-1.09,3.394-3.394-6.657-7.5-15.606-12.499-25.143-15.366-9.344-2.81-19.599-3.943-29.323-3.017-9.414.896-18.551,3.765-26.942,8.098-6.697,3.458-12.956,7.885-17.948,13.567-11.562,13.158-15.186,30.301-17.275,47.2-1.031,8.346-1.733,16.738-3.114,25.038-1.598,9.603-3.333,19.495-.864,29.119,1.083,4.223,2.964,8.233,5.849,11.521,2.514,2.865,5.706,5.169,9.026,7.011,7.384,4.097,15.788,6.299,24.154,7.133,2.016.201,4.039.303,6.065.31,3.089.01,3.093-4.79,0-4.8h0Z"></path><path class="i" d="m116.001,178.818c8.664,3.989,17.768,5.548,27.257,5.548s18.593-1.558,27.257-5.548c1.177-.542,1.47-2.243.861-3.284-.707-1.209-2.102-1.405-3.284-.861-7.872,3.624-16.236,4.893-24.835,4.893s-16.963-1.268-24.835-4.893c-1.177-.542-2.585-.334-3.284.861-.605,1.035-.322,2.739.861,3.284h0Z"></path><path class="i" d="m40.331,223.416c10.127-19.393,25.826-35.661,44.696-46.703,2.679-1.568,5.419-3.031,8.213-4.383,1.396-.675,2.806-1.323,4.228-1.943.58-.253,1.162-.499,1.748-.739.299-.122.598-.244.898-.364.15-.06,1.527-.48.815-.48,3.089,0,3.094-4.8,0-4.8-1.234,0-2.755.914-3.885,1.386-1.384.579-2.76,1.175-4.122,1.802-2.585,1.188-5.126,2.47-7.617,3.843-4.989,2.747-9.778,5.854-14.328,9.279-9.245,6.96-17.453,15.12-24.442,24.343-3.899,5.146-7.36,10.614-10.348,16.336-1.428,2.735,2.713,5.165,4.145,2.423h0Z"></path><path class="i" d="m184.981,168.729c20.249,7.823,38.333,21.587,51.325,38.975,3.709,4.964,7.012,10.22,9.881,15.712,1.431,2.739,5.575.315,4.145-2.423-10.548-20.192-27.061-37.177-46.74-48.611-5.546-3.222-11.352-5.971-17.335-8.282-1.209-.467-2.633.515-2.952,1.676-.372,1.356.462,2.483,1.676,2.952h0Z"></path><path class="i" d="m106.061,220.993c-3.649-6.646-7.24-13.323-10.75-20.043-.846-1.62-1.687-3.242-2.523-4.866-.214-.416-.765-1.384-.746-1.442.177-.553,1.131-1.266,1.516-1.669,2.543-2.664,5.208-5.207,7.898-7.722,1.127-1.054.822-3.022-.486-3.769-1.472-.841-2.943-1.683-4.414-2.525-.7-.401-1.4-.802-2.1-1.203-.349-.2-.699-.401-1.048-.601-.179-.103-.917-.723-.727-.369l.328,1.211c.011.283-.188.373.035-.01.146-.252.279-.51.43-.759.255-.421.528-.831.82-1.227.686-.931,1.479-1.788,2.287-2.614,1.872-1.914,3.928-3.637,6.035-5.283l-1.697.703c1.108,0,1.897-.856,2.727-1.475.929-.694,1.87-1.371,2.82-2.036,1.559-1.092,3.256-2.554,5.011-3.303l-1.211.328-.651-.275-.617-1.059c.504,1.285.688,2.78,1.002,4.124.351,1.502.708,3.003,1.069,4.503.727,3.015,1.474,6.026,2.24,9.032,1.54,6.04,3.159,12.06,4.846,18.06.835,2.969,5.467,1.708,4.629-1.276-2.526-8.987-4.898-18.017-7.086-27.092-.529-2.195-1.044-4.392-1.556-6.591-.249-1.069-.373-2.242-1.132-3.095-.714-.802-1.682-1.185-2.744-1.131-1.091.056-1.951.741-2.824,1.32-.83.55-1.656,1.106-2.476,1.671-1.953,1.344-3.859,2.748-5.733,4.199l1.697-.703c-1.344,0-2.57,1.368-3.543,2.171-1.063.877-2.103,1.783-3.101,2.733-1.809,1.722-3.54,3.612-4.863,5.742-.592.954-1.228,2.04-1.219,3.191.013,1.676,1.258,2.582,2.573,3.336,2.59,1.485,5.18,2.969,7.772,4.45l-.486-3.769c-2.975,2.781-5.921,5.598-8.704,8.574-1.459,1.561-2.548,3.295-1.912,5.516.524,1.831,1.742,3.619,2.616,5.303,3.859,7.437,7.823,14.82,11.855,22.165,1.487,2.709,5.634.289,4.145-2.423h0Z"></path><path class="i" d="m169.423,192.873c1.484-5.367,2.912-10.748,4.274-16.147.658-2.607,1.3-5.217,1.927-7.832.321-1.34.638-2.681.951-4.024.161-.689.32-1.379.481-2.068.068-.29.135-.579.201-.869.041-.179.244-.661.159-.548l-.861.861c-1.281-.323-1.579-.296-.895.08.221.144.441.288.661.433.461.304.922.609,1.38.917.857.575,1.709,1.159,2.554,1.752,1.881,1.321,3.73,2.687,5.504,4.15,1.732,1.428,3.413,2.932,4.935,4.584.585.634,1.157,1.286,1.658,1.989.283.397.551.804.798,1.225.117.199.229.401.336.607.194.399.202.402.024.01l.328-1.211c.199-.155.172-.152-.08.009-.211.12-.421.24-.632.36-.281.16-.561.32-.842.481-.771.441-1.543.882-2.314,1.324-1.47.842-2.94,1.685-4.411,2.525-1.31.749-1.611,2.714-.486,3.769,2.629,2.465,5.24,4.951,7.735,7.552.435.453,1.484,1.227,1.677,1.839-.057-.18-.053.018-.108.181-.139.413-.446.872-.646,1.261-.834,1.625-1.675,3.247-2.52,4.866-3.508,6.72-7.102,13.395-10.744,20.043-1.485,2.71,2.658,5.135,4.145,2.423,4.026-7.347,7.993-14.727,11.848-22.165.879-1.696,2.071-3.467,2.619-5.303.653-2.191-.472-3.981-1.909-5.516-2.784-2.974-5.732-5.789-8.704-8.574l-.486,3.769c2.383-1.362,4.763-2.729,7.146-4.089,1.178-.672,2.479-1.253,2.976-2.618.479-1.316.01-2.496-.635-3.66-2.359-4.255-6.368-7.6-10.151-10.541-2.108-1.639-4.269-3.202-6.478-4.702-1.866-1.267-4.133-3.402-6.5-2.069-1.212.682-1.522,1.9-1.81,3.146-.32,1.387-.644,2.773-.97,4.158-.634,2.691-1.286,5.379-1.954,8.062-1.522,6.116-3.13,12.21-4.809,18.285-.824,2.982,3.805,4.254,4.629,1.276h0Z"></path></g></g></svg>