<svg id="b" xmlns="http://www.w3.org/2000/svg" width="310.796" height="263.446" viewBox="0 0 310.796 263.446"><defs><style>.g{fill:#fcdc4a;}.g,.h,.i{stroke-width:0px;}.h{fill:#fff;}.i{fill:#211715;}</style></defs><g id="c"><g id="d"><path class="h" d="m92.762,84.386c-1.626-1.574-3.822-2.172-5.703-2.113-4.094.128-5.845,2.336-6.6,3.633-2.253,3.872-2.186,11.023-.701,15.453,1.051,3.137,2.775,7.937,6.963,11.391,1.856,1.531,4.659,2.506,7.258,1.847,1.878,6.472,5.293,14.286,11.316,21.553,4.663,5.625,9.566,9.818,15.035,12.45-.023,2.07.026,3.037-.182,5.888-.101,1.381-.208,2.874-.72,4.222-.686,1.772-1.61,3.307-3.095,4.505-3.145,2.533-6.377,3.744-10.357,5.241,0,0-2.578.974-4.137,1.588.805.598,1.22.834,1.96,1.27,10.666,6.291,26.758,9.81,40.502,10.123,13.728-.309,29.734-3.818,40.411-10.08.62-.363,1.096-.584,1.818-1.026-1.273-.521-4.857-1.875-4.857-1.875-3.981-1.497-7.213-2.708-10.357-5.241-1.485-1.198-2.408-2.733-3.095-4.505-.512-1.348-.619-2.84-.72-4.222-.224-3.072-.15-3.957-.191-6.398,11.705-6.486,20.943-22.281,22.642-26.837.588-1.213,1.552-3.711,2.334-6.262l.644.111c2.434.421,4.985-.502,6.722-1.912,4.214-3.421,5.975-8.207,7.051-11.336,1.519-4.419,1.642-11.569-.581-15.458-.745-1.303-2.478-3.524-6.571-3.684-1.873-.073-4.063.502-5.694,2.055-8.509-2.581-18.087-11.55-23.728-22.2-2.278-4.301-4.896-13.124-6.741-20.216-8.521,11.527-19.947,20.068-33.7,24.539-.81.263-2.005.427-2.822.13-1.058-.501-1.355-.984-1.265-2.378.225-3.468,1.614-9.2,2.011-12.553-9.376,9.209-19.625,18.93-29.134,26.71l-5.715,5.587Z"></path><path class="h" d="m112.374,220.34c-.4-4.861-.708-9.815,1.095-14.903,3.155-8.244,7.922-11.642,19.126-13.208-.495-2.084,1.393-4.06,3.64-4.913,2.16-.82,4.582-1.001,6.943-1.13,3.431-.188,6.872-.455,10.308-.354,3.436.101,6.958.757,9.726,2.489,4.286,2.682,6.015,7.405,6.804,11.877.466,2.639.697,5.308.69,7.977-.01,3.816-.505,7.635-.202,11.443.506,6.365,3.281,12.593,7.912,17.622-.902,5.05-2.599,9.674-5.171,15.602-5.203-.535-12.48-1.284-12.48-1.284-4.586-.907-8.775-2.496-12.123-4.877l-1.606.842-24.74,12.969c-1.44.975-3.38.661-4.467-.696-3.281-4.096-6.181-8.412-8.664-12.896-.647-1.167-1.278-2.403-1.2-3.691.093-1.529,1.16-2.868,1.973-4.235,3.638-6.113,2.958-12.294,2.436-18.633Z"></path><g id="e"><path class="g" d="m214.619,131.746c-4.39-14.85-6.16-29.94-6.36-45.4.29-8.93-.33-19.51-.65-23.94-1.1-15.36-8.02-32.52-17.97-42.05-3.96-3.8-5.34-5.73-9.19-7.98,0,0-2.23-1.31-4.45-2.61-2.22-.9-4.43-1.8-4.43-1.8-8.23-3.33-16.81-5.55-28.99-5.55-19.96,0-37.73,10.29-45.62,17.84-13.08,12.52-21.38,35.4-20.33,66.94,0,21.39-1.75,36.8-4.21,45.57-1.67,6-3.09,15.99-3.15,22.08-.08,8.52,9.05,20.2,23.51,18.81l.033-.004c2.937-1.276,5.977-2.475,9.053-3.59-.01-.007-.017-.012-.026-.019,1.56-.614,4.137-1.588,4.137-1.588,3.981-1.497,7.213-2.708,10.357-5.241,1.485-1.198,2.408-2.733,3.095-4.505.512-1.348.619-2.84.72-4.222.208-2.851.159-3.818.182-5.888-5.469-2.632-10.372-6.825-15.035-12.45-6.023-7.266-9.438-15.081-11.316-21.553-2.598.659-5.402-.316-7.258-1.847-4.187-3.453-5.911-8.253-6.963-11.391-1.485-4.43-1.552-11.581.701-15.453.755-1.297,2.505-3.505,6.6-3.633,1.881-.059,4.077.539,5.703,2.113l5.715-5.587c9.51-7.781,19.759-17.501,29.134-26.71-.397,3.353-1.785,9.084-2.011,12.553-.091,1.394.206,1.877,1.265,2.378.817.297,2.013.133,2.822-.13,13.752-4.472,25.179-13.013,33.7-24.539,1.845,7.091,4.463,15.915,6.741,20.216,5.641,10.65,15.219,19.619,23.728,22.2,1.631-1.553,3.821-2.128,5.694-2.055,4.093.16,5.826,2.381,6.571,3.684,2.223,3.889,2.1,11.04.581,15.458-1.076,3.129-2.837,7.916-7.051,11.336-1.736,1.41-4.288,2.333-6.722,1.912,0,0-.234-.041-.644-.111-.782,2.551-1.746,5.049-2.334,6.262-1.699,4.557-10.937,20.352-22.642,26.837.041,2.441-.033,3.326.191,6.398.101,1.381.208,2.874.72,4.222.686,1.772,1.61,3.307,3.095,4.505,3.145,2.533,6.377,3.744,10.357,5.241,0,0,3.58,1.353,4.855,1.874.004-.003.007-.004.012-.007,3.109,1.156,6.179,2.396,9.133,3.717.012.002.025.005.037.007,9.44,1.25,19.17-4.83,22.13-14.04,2.76-8.55-.66-19.64-3.22-28.26Z" style="fill: rgb(208, 208, 208);"></path><path class="g" d="m20.499,123.561c-.214.92-1.515.936-1.752.022-.991-3.82-2.529-8.383-4.865-11.103-2.85-3.318-6.968-4.727-10.785-5.547-.948-.204-.944-1.562.004-1.763,3.78-.801,7.947-2.212,10.718-5.203,2.638-2.847,4.127-8.576,4.961-12.463.202-.942,1.538-.957,1.761-.021.928,3.887,2.581,9.632,5.224,12.483,2.744,2.96,6.709,4.373,10.373,5.178.951.209.942,1.573-.013,1.764-3.913.784-8.203,2.127-11.051,5.444-2.335,2.719-3.677,7.353-4.575,11.206Z" style="fill: rgb(208, 208, 208);"></path><path class="g" d="m261.782,152.869c-.214.92-1.515.936-1.752.022-.991-3.82-2.529-8.383-4.865-11.103-2.85-3.318-6.968-4.727-10.785-5.547-.948-.204-.944-1.562.004-1.763,3.78-.801,7.947-2.212,10.718-5.203,2.638-2.847,4.127-8.576,4.961-12.463.202-.942,1.538-.957,1.761-.021.928,3.887,2.581,9.632,5.224,12.483,2.744,2.96,6.709,4.373,10.373,5.178.951.209.942,1.573-.013,1.764-3.913.784-8.203,2.127-11.051,5.444-2.335,2.719-3.677,7.353-4.575,11.206Z" style="fill: rgb(208, 208, 208);"></path><path class="g" d="m296.54,109.918c-.155.667-1.099.679-1.271.016-.719-2.771-1.835-6.082-3.529-8.055-2.068-2.407-5.055-3.429-7.825-4.024-.687-.148-.685-1.133.003-1.279,2.742-.581,5.766-1.605,7.776-3.775,1.914-2.065,2.994-6.222,3.599-9.042.147-.683,1.116-.694,1.278-.015.674,2.82,1.873,6.988,3.79,9.057,1.99,2.148,4.867,3.173,7.526,3.757.69.152.683,1.141-.01,1.28-2.839.569-5.951,1.543-8.018,3.95-1.694,1.972-2.668,5.334-3.319,8.13Z" style="fill: rgb(208, 208, 208);"></path></g></g><g id="f"><path class="i" d="m74.229,87.196c-.005,8.644-.261,17.299-1.032,25.911-.519,5.797-1.227,11.542-2.619,17.215-1.72,7.013-3.095,14.023-3.575,21.249-.191,2.869-.202,5.675.687,8.442.917,2.855,2.44,5.434,4.36,7.726,5.058,6.036,12.948,9.004,20.729,8.317,1.291-.114,2.4-1.021,2.4-2.4,0-1.21-1.101-2.515-2.4-2.4-6.237.551-12.25-1.421-16.559-6.035-1.661-1.778-3.096-4.095-3.82-6.239-.189-.559-.35-1.129-.478-1.705-.177-.798-.17-.757-.217-1.39-.106-1.43.004-2.888.099-4.316.45-6.761,1.754-13.302,3.376-19.862,1.362-5.508,2.094-11.182,2.65-16.821.908-9.198,1.194-18.453,1.2-27.693.002-3.089-4.798-3.094-4.8,0h0Z"></path><path class="i" d="m205.859,86.346c.211,15.053,1.916,30.152,6.046,44.659,3.077,10.808,8.737,25.275-.231,34.813-4.112,4.373-10.005,6.559-15.965,5.827-1.289-.158-2.4,1.216-2.4,2.4,0,1.429,1.108,2.241,2.4,2.4,6.114.751,12.271-1.303,17.043-5.11,4.946-3.946,7.822-9.667,8.397-15.926.645-7.027-1.258-14.177-3.201-20.865-2.104-7.246-3.991-14.478-5.183-21.939-1.387-8.681-1.983-17.474-2.106-26.259-.043-3.086-4.843-3.095-4.8,0h0Z"></path><path class="i" d="m179.241,14.446c2.037,1.21,3.74,2.682,5.413,4.351,1.882,1.877,3.85,3.688,5.611,5.681,3.453,3.906,6.164,8.461,8.375,13.168,2.329,4.958,4.047,10.216,5.213,15.566,1,4.587,1.39,9.204,1.647,13.881.353,6.409.552,12.838.353,19.255-.096,3.09,4.704,3.087,4.8,0,.185-5.955.021-11.92-.28-17.868-.254-5.019-.6-10.018-1.565-14.959-2.178-11.15-6.767-22.206-13.977-31.052-1.954-2.397-4.217-4.488-6.396-6.674-2.075-2.082-4.237-3.983-6.774-5.491-2.662-1.582-5.079,2.566-2.423,4.145h0Z"></path><path class="i" d="m172.204,5.654C161.973,1.527,150.975-.423,139.935.077c-11.23.509-22.264,3.971-32.06,9.424-7.356,4.095-13.769,9.342-18.746,16.156-5.182,7.095-8.676,15.385-10.991,23.824-3.356,12.234-4.312,25.078-3.91,37.72.098,3.081,4.898,3.095,4.8,0-.611-19.217,1.765-40.01,12.447-56.505,4.026-6.217,9.345-11.243,15.678-15.196,8.683-5.42,18.662-9.202,28.867-10.32,11.886-1.303,23.863.647,34.908,5.103,1.203.485,2.637-.528,2.952-1.676.377-1.371-.469-2.465-1.676-2.952h0Z"></path><path class="i" d="m161.23,43.602c1.84,6.964,3.653,14.364,7.125,20.73,3.708,6.797,8.858,12.874,15.037,17.544,2.962,2.238,6.243,4.082,9.796,5.195,2.955.926,4.219-3.707,1.276-4.629-5.958-1.867-11.019-6.21-15.111-10.791-4.498-5.036-7.732-10.73-9.888-17.104-1.361-4.024-2.521-8.116-3.606-12.222-.788-2.984-5.42-1.718-4.629,1.276h0Z"></path><path class="i" d="m161.269,41.201c-4.531,6.083-10.082,11.469-16.396,15.681-3.249,2.168-6.689,4.046-10.269,5.608-1.688.737-3.422,1.387-5.173,1.959-.365.119-.764.277-1.151.314-.033.003-.58-.03-.59-.025-.266.15-.018-.226.002-.002-.09-.997.361.563.3.579.014-.004.041-1.105.057-1.274.372-4.019,1.466-7.948,1.963-11.954.269-2.167-2.744-3.026-4.097-1.697-9.399,9.228-18.943,18.355-29.134,26.71-1.003.822-.853,2.541,0,3.394.992.992,2.389.824,3.394,0,10.192-8.356,19.736-17.483,29.134-26.71l-4.097-1.697c-.478,3.855-1.592,7.952-1.963,11.954-.193,2.08.321,3.941,2.271,4.98,2.203,1.175,4.726.247,6.886-.533,8.439-3.049,16.195-7.678,22.885-13.658,3.769-3.369,7.107-7.158,10.124-11.209.775-1.04.17-2.681-.861-3.284-1.224-.716-2.507-.182-3.284.861h0Z"></path><path class="i" d="m190.939,110.646c-.765,3.661-2.125,7.15-3.481,10.42.291-.701.039-.092-.04.077-.103.22-.203.441-.309.661-.245.509-.502,1.013-.767,1.512-.638,1.201-1.32,2.378-2.033,3.536-3.688,5.996-8.177,11.632-13.652,16.093-2.999,2.444-6.417,4.386-10.177,5.236-3.012.682-1.737,5.31,1.276,4.629,7.698-1.742,14.111-7.373,19.139-13.198,4.15-4.808,8.046-10.23,10.668-16.046.164-.364.321-.732.473-1.101.066-.16.351-.807.075-.187.426-.96.836-1.928,1.208-2.911.918-2.422,1.719-4.908,2.249-7.445.63-3.014-3.996-4.303-4.629-1.276h0Z"></path><path class="i" d="m90.675,111.352c1.658,7.461,4.664,14.693,8.884,21.07,4.543,6.863,10.524,13.294,17.776,17.326,3.666,2.038,7.667,3.425,11.814,4.053,1.28.194,2.58-.322,2.952-1.676.312-1.134-.387-2.757-1.676-2.952-14.952-2.263-26.139-15.262-31.789-28.572-1.439-3.39-2.534-6.931-3.333-10.524-.67-3.014-5.299-1.739-4.629,1.276h0Z"></path><path class="i" d="m94.459,82.689c-3.254-2.977-8.032-3.622-12.02-1.755-2.961,1.386-4.688,4.256-5.462,7.336-1.812,7.208-.027,15.427,4.032,21.592,2.734,4.152,7.095,7.969,12.419,7.253,1.284-.173,2.4-.98,2.4-2.4,0-1.163-1.106-2.574-2.4-2.4-6.277.843-9.688-6.552-11.314-11.471-.929-2.809-1.176-5.789-.935-8.731.115-1.401.38-2.864.929-4.165.166-.393.39-.752.602-1.121.081-.141.327-.462.083-.153.163-.207.343-.403.53-.588,1.84-1.821,5.618-1.946,7.742-.002,2.275,2.082,5.679-1.303,3.394-3.394h0Z"></path><path class="i" d="m195.528,86.476c1.924-1.733,5.133-1.84,7.238-.357.609.429.867.761,1.283,1.488.662,1.155.982,2.515,1.18,3.823.825,5.458-.696,11.206-3.58,15.858-1.655,2.669-4.559,6.001-8.082,5.5-1.282-.182-2.578.314-2.952,1.676-.309,1.125.385,2.769,1.676,2.952,9.072,1.291,14.345-7.653,16.775-15.074,1.233-3.764,1.417-7.931.845-11.831-.483-3.299-1.795-6.505-4.609-8.459-3.977-2.763-9.652-2.138-13.169,1.03-2.3,2.072,1.103,5.458,3.394,3.394h0Z"></path><path class="i" d="m133.965,127.027c3.064,1.618,6.364,2.294,9.828,2.272,3.51-.023,7.07-.708,9.883-2.9,1.023-.797.837-2.557,0-3.394-1.01-1.01-2.368-.799-3.394,0,.718-.559.122-.105-.062.013-.199.128-.404.245-.613.355-.157.082-.892.382-.267.148-.281.106-.56.215-.846.307-1.83.588-3.064.682-5.019.671-.503-.003-1.005-.02-1.506-.054-.23-.016-.46-.034-.69-.057.004,0-.797-.107-.38-.042-.747-.115-1.487-.274-2.211-.491-.31-.093-.612-.204-.917-.308-.099-.034-.195-.086-.296-.115.599.172.204.091.038.013-.379-.179-.753-.365-1.124-.561-1.146-.605-2.61-.291-3.284.861-.634,1.084-.289,2.676.861,3.284h0Z"></path><path class="i" d="m142.654,103.769c.432,1.649.847,3.323,1.095,5.011l-.086-.638c.029.231.042.459.019.692l.086-.638c-.016.108-.04.208-.076.311l.242-.573c-.032.073-.066.134-.11.2l.375-.486c-.052.063-.1.111-.164.161l.486-.375c-.127.081-.26.147-.397.21l.573-.242c-.218.091-.435.158-.669.195l.638-.086c-.211.025-.417.023-.628-.001l.638.086c-.237-.033-.469-.091-.706-.122-.67-.09-1.239-.115-1.849.242-.498.291-.973.862-1.103,1.434-.14.614-.11,1.304.242,1.849.312.484.835,1.022,1.434,1.103.524.071,1.032.204,1.565.228.809.035,1.564-.211,2.287-.541.89-.407,1.584-1.197,1.82-2.156.2-.811.113-1.53-.024-2.342-.273-1.614-.646-3.214-1.061-4.798-.318-1.214-1.729-2.072-2.952-1.676-1.25.404-2.018,1.651-1.676,2.952h0Z"></path><path class="i" d="m115.995,89.623c-.837,2.719-.291,8.975,4.86,9.508,6.809-.041,7.172-7.604,4.879-11.16-1.877-2.912-7.395-4.122-9.74,1.653Z"></path><path class="i" d="m170.523,89.623c.837,2.719.292,8.975-4.86,9.507-6.809-.041-7.172-7.604-4.88-11.16,1.877-2.911,7.395-4.122,9.74,1.653Z"></path><path class="i" d="m102.462,172.363c4.824-1.893,10.049-3.36,14.272-6.453,2.676-1.96,4.721-4.637,5.4-7.949.568-2.768.576-5.684.591-8.502.016-3.089-4.784-3.093-4.8,0-.012,2.327.03,4.754-.386,7.048-.463,2.546-1.931,4.423-4.045,5.829-3.74,2.487-8.158,3.77-12.308,5.398-1.206.473-2.046,1.608-1.676,2.952.316,1.149,1.739,2.152,2.952,1.676h0Z"></path><path class="i" d="m186.462,167.734c-4.149-1.628-8.573-2.907-12.308-5.398-2.073-1.383-3.487-3.174-4.012-5.651-.492-2.325-.407-4.855-.419-7.225-.016-3.088-4.816-3.094-4.8,0,.015,2.819.028,5.73.591,8.502.672,3.31,2.729,5.992,5.4,7.949,4.223,3.094,9.448,4.56,14.272,6.453,1.207.474,2.635-.52,2.952-1.676.374-1.361-.465-2.477-1.676-2.952h0Z"></path><path class="i" d="m44.553,223.377c4.819-8.813,10.371-17.251,17.157-24.683,6.515-7.136,14.06-13.26,22.44-18.079,5.815-3.344,12.026-5.941,18.312-8.253,1.216-.447,2.04-1.628,1.676-2.952-.322-1.171-1.73-2.126-2.952-1.676-10.845,3.989-21.125,8.943-30.305,16.021-8.029,6.191-14.934,13.599-20.863,21.81-3.544,4.908-6.706,10.079-9.609,15.389-1.483,2.712,2.661,5.137,4.145,2.423h0Z"></path><path class="i" d="m246.897,220.955c-5.04-9.272-10.924-18.129-18.058-25.932-6.763-7.395-14.693-13.794-23.399-18.766-6.025-3.441-12.48-6.119-18.977-8.523-1.216-.45-2.63.503-2.952,1.676-.369,1.341.456,2.501,1.676,2.952,10.179,3.766,19.893,8.488,28.501,15.162,7.576,5.875,14.179,12.981,19.737,20.779,3.433,4.816,6.504,9.879,9.328,15.073,1.476,2.715,5.622.295,4.145-2.423h0Z"></path><path class="i" d="m185.094,168.391c-9.63,5.58-20.406,8.668-31.433,9.975-5.584.662-11.07.771-16.667.221-5.774-.567-11.513-1.652-17.094-3.238-5.69-1.617-11.576-3.718-16.477-7.109-1.066-.738-2.665-.197-3.284.861-.697,1.192-.208,2.544.861,3.284,4.606,3.187,10.137,5.286,15.45,6.945,5.882,1.836,11.944,3.033,18.056,3.782,5.862.719,11.623.838,17.5.237,6.045-.618,12.056-1.696,17.904-3.355,6.185-1.754,12.046-4.237,17.606-7.458,2.672-1.548.258-5.698-2.423-4.145h0Z"></path><path class="i" d="m18.184,122.923v-.13c.287-.287.574-.574.861-.861.517-.143,1.017-.076,1.499.2l.617,1.059c-.846-2.066-1.247-4.318-2.107-6.399-.919-2.225-2.005-4.347-3.611-6.161-1.516-1.713-3.48-3.068-5.556-4.012-1.06-.482-2.146-.908-3.258-1.253-.771-.239-2.459-.509-2.776-.746l.861.861c.097.381.098.762.003,1.143l-.861.861c.378-.281,2.211-.556,3.042-.816,1.198-.376,2.372-.837,3.509-1.369,2.273-1.065,4.372-2.598,5.9-4.602,1.425-1.87,2.351-4.079,3.108-6.292.366-1.071.684-2.158.969-3.252.15-.573.29-1.149.424-1.726.05-.218.1-.436.148-.655.037-.168.252-.667.135-.509l-.861.861c-.511.134-1.006.069-1.484-.195l-.617-1.059c.791,2.033,1.124,4.274,1.868,6.341.783,2.174,1.7,4.377,3.088,6.241,1.464,1.967,3.419,3.527,5.6,4.641,1.174.6,2.411,1.101,3.663,1.514.823.272,2.655.569,3.034.856l-.861-.861c-.097-.379-.1-.76-.009-1.141l.861-.861c.174-.127-.097.045-.243.068-.3.047-.603.129-.899.198-.486.112-.969.234-1.449.368-1.139.318-2.244.716-3.332,1.179-2.163.92-4.212,2.205-5.811,3.948-3.121,3.405-4.423,8.172-5.455,12.561-.707,3.004,3.92,4.287,4.629,1.276.854-3.632,1.786-7.97,4.491-10.729,1.323-1.349,3.003-2.323,4.77-2.972.945-.347,1.913-.631,2.89-.874.961-.239,1.987-.331,2.831-.878,2.25-1.457,1.691-4.951-.763-5.819-1.918-.678-3.901-.971-5.748-1.89-1.649-.821-3.257-1.891-4.344-3.408s-1.829-3.297-2.444-5.057c-.64-1.833-1.044-3.717-1.604-5.57-.681-2.255-3.38-3.51-5.328-1.835-1.475,1.268-1.551,3.818-2.05,5.605-.515,1.843-1.105,3.684-1.998,5.383-1.844,3.511-5.315,5.207-9.016,6.212-.925.251-2.029.334-2.868.825-1.049.614-1.668,1.774-1.631,2.976.084,2.771,2.726,3.066,4.807,3.665,2.064.594,4.119,1.432,5.801,2.798,1.773,1.44,2.922,3.375,3.817,5.45.459,1.065.837,2.168,1.186,3.274s.531,2.356,1.041,3.399c.591,1.208,1.741,1.918,3.09,1.89,1.535-.031,2.555-1.096,3.069-2.445.461-1.212-.511-2.632-1.676-2.952-1.351-.371-2.489.46-2.952,1.676Z"></path><path class="i" d="m259.468,152.231v-.13c.287-.287.574-.574.861-.861.517-.143,1.017-.076,1.499.2l.617,1.059c-.846-2.066-1.247-4.318-2.107-6.399-.919-2.225-2.005-4.347-3.611-6.161-1.516-1.713-3.48-3.068-5.556-4.012-1.06-.482-2.146-.908-3.258-1.253-.771-.239-2.459-.509-2.776-.746l.861.861c.097.381.098.762.003,1.143l-.861.861c.378-.281,2.211-.556,3.042-.816,1.198-.376,2.372-.837,3.509-1.369,2.273-1.065,4.372-2.598,5.9-4.602,1.425-1.87,2.351-4.079,3.108-6.292.366-1.071.684-2.158.969-3.252.15-.573.29-1.149.424-1.726.05-.218.1-.436.148-.655.037-.168.252-.667.135-.509l-.861.861c-.511.134-1.006.069-1.484-.195l-.617-1.059c.791,2.033,1.124,4.274,1.868,6.341.783,2.174,1.7,4.377,3.088,6.241,1.464,1.967,3.419,3.527,5.6,4.641,1.174.6,2.411,1.101,3.663,1.514.823.272,2.655.569,3.034.856l-.861-.861c-.097-.379-.1-.76-.009-1.141l.861-.861c.174-.127-.097.045-.243.068-.3.047-.603.129-.899.198-.486.112-.969.234-1.449.368-1.139.318-2.244.716-3.332,1.179-2.163.92-4.212,2.205-5.811,3.948-3.121,3.405-4.423,8.172-5.455,12.561-.707,3.004,3.92,4.287,4.629,1.276.854-3.632,1.786-7.97,4.491-10.729,1.323-1.349,3.003-2.323,4.77-2.972.945-.347,1.913-.631,2.89-.874.961-.239,1.987-.331,2.831-.878,2.25-1.457,1.691-4.951-.763-5.819-1.918-.678-3.901-.971-5.748-1.89-1.649-.821-3.257-1.891-4.344-3.408s-1.829-3.297-2.444-5.057c-.64-1.833-1.044-3.717-1.604-5.57-.681-2.255-3.38-3.51-5.328-1.835-1.475,1.268-1.551,3.818-2.05,5.605-.515,1.843-1.105,3.684-1.998,5.383-1.844,3.511-5.315,5.207-9.016,6.212-.925.251-2.029.334-2.868.825-1.049.614-1.668,1.774-1.631,2.976.084,2.771,2.726,3.066,4.807,3.665,2.064.594,4.119,1.432,5.801,2.798,1.773,1.44,2.922,3.375,3.817,5.45.459,1.065.837,2.168,1.186,3.274s.531,2.356,1.041,3.399c.591,1.208,1.741,1.918,3.09,1.89,1.535-.031,2.555-1.096,3.069-2.445.461-1.212-.511-2.632-1.676-2.952-1.351-.371-2.489.46-2.952,1.676Z"></path><path class="i" d="m294.468,108.707l.085-.075,1.059-.617.595.009,1.059.617c.257.413.297.387.121-.078-.052-.188-.105-.375-.16-.562-.13-.446-.267-.89-.415-1.331-.279-.833-.598-1.65-.945-2.458-.676-1.573-1.515-3.065-2.693-4.323-1.171-1.251-2.65-2.235-4.211-2.926-1.506-.667-3.133-.904-4.635-1.513l1.059.617.328.51v1.276l-.326.511-1.059.617c.76-.305,1.62-.406,2.406-.648.932-.287,1.847-.644,2.731-1.055,1.735-.808,3.338-1.973,4.509-3.495,1.092-1.418,1.8-3.075,2.384-4.758.544-1.569.724-3.325,1.338-4.851l-.617,1.059-.516.323h-1.276c-.822-1.068-1.115-1.251-.879-.549.055.219.111.439.169.657.091.345.186.69.285,1.033.243.841.512,1.677.822,2.496.615,1.626,1.324,3.207,2.391,4.589,1.113,1.44,2.605,2.583,4.233,3.389.879.435,1.805.809,2.738,1.112.794.257,1.661.368,2.427.683l-1.059-.617-.33-.507v-1.276l.321-.513,1.059-.617c-1.54.6-3.206.802-4.75,1.467-1.589.684-3.101,1.622-4.291,2.895-2.399,2.566-3.412,6.145-4.2,9.483-.709,3.004,3.918,4.286,4.629,1.276.665-2.816,1.384-6.294,3.816-8.16.984-.755,2.148-1.253,3.323-1.617,1.591-.494,3.565-.502,4.445-2.156.944-1.775-.084-3.795-1.914-4.38-1.407-.45-2.817-.692-4.14-1.396-2.587-1.377-3.703-3.672-4.568-6.361-.419-1.303-.558-3.004-1.269-4.176-1.04-1.714-3.513-1.934-4.862-.473-.927,1.005-1.003,2.683-1.351,3.948-.398,1.451-.853,2.906-1.595,4.222-1.385,2.456-4.129,3.467-6.74,4.091-1.81.433-3.377,1.664-2.914,3.753.415,1.872,1.973,2.214,3.588,2.654,3.267.891,5.552,2.615,6.89,5.762.337.793.609,1.617.863,2.439.269.869.402,1.9.885,2.681,1.201,1.943,4.338,1.883,5.299-.259.531-1.182.341-2.581-.861-3.284-1.026-.6-2.75-.327-3.284.861Z"></path><path class="i" d="m131.219,190.022c-4.329.668-8.87,1.731-12.508,4.298-3.325,2.346-5.532,5.601-7.088,9.318-2.225,5.316-2.112,11.055-1.65,16.692.422,5.153,1.041,10.591-1.087,15.477-1.139,2.614-3.394,4.803-3.322,7.828.073,3.044,2.39,6.09,3.947,8.579,1.69,2.701,3.528,5.303,5.478,7.822.83,1.072,1.576,2.113,2.801,2.76,1.291.681,2.825.825,4.229.441,1.512-.413,3.105-1.523,4.483-2.245l7.831-4.105c4.638-2.431,9.275-4.862,13.913-7.293,2.737-1.435.313-5.579-2.423-4.145-8.037,4.213-16.073,8.426-24.11,12.639-.342.179-.92.598-1.29.598-.633,0-1.119-.861-1.474-1.314-.915-1.168-1.792-2.366-2.644-3.581-1.657-2.363-3.203-4.804-4.627-7.314-.518-.914-1.454-2.148-1.315-3.269.133-1.072,1.112-2.125,1.645-3.023,2.787-4.698,3.397-10.064,3.099-15.425-.278-4.997-1.187-10.124-.275-15.105.762-4.166,2.626-8.121,5.754-10.77,1.055-.893,2.972-1.922,4.456-2.462,2.405-.875,4.927-1.383,7.451-1.772,1.282-.198,1.991-1.806,1.676-2.952-.376-1.369-1.666-1.875-2.952-1.676h0Z"></path><path class="i" d="m178.518,233.67c-3.484-4.671-5.589-10.103-5.705-15.958-.063-3.183.286-6.356.293-9.538.007-3.113-.299-6.251-.905-9.305-1.016-5.119-3.472-10.124-8.128-12.832-5.378-3.128-11.974-2.761-17.952-2.422-3.474.197-7.228.132-10.524,1.386-2.877,1.095-5.761,3.611-5.452,6.985.118,1.291,1.018,2.4,2.4,2.4,1.207,0,2.519-1.102,2.4-2.4-.184-2.01,2.701-2.697,4.236-2.998,2.736-.537,5.635-.513,8.413-.653,4.925-.247,10.936-.666,15.103,2.527,3.474,2.662,4.659,7.242,5.229,11.372.791,5.727-.247,11.417.161,17.144.431,6.059,2.66,11.851,6.286,16.714.774,1.037,2.076,1.567,3.284.861,1.023-.598,1.64-2.239.861-3.284h0Z"></path><path class="i" d="m155.226,192.412c-3.682-.153-7.367-.152-11.048.025-3.395.162-7.071.204-10.367,1.099-2.502.679-4.779,2.199-5.489,4.811-.779,2.865.844,5.405,3.282,6.803,2.684,1.54,5.105-2.606,2.423-4.145-.265-.152-.755-.456-.847-.565-.112-.133-.171-.302-.267-.444.193.285-.015-.281.007-.012-.008-.103.009-.231.032-.362.074-.417-.08.087.026-.125.063-.125.135-.242.206-.363.132-.227-.263.214.052-.068.038-.034.333-.297.247-.232.196-.148.717-.39,1.061-.509,1.107-.385,2.282-.516,3.441-.632,5.728-.57,11.49-.72,17.242-.481,3.089.128,3.083-4.672,0-4.8h0Z"></path><path class="i" d="m156.499,202.1c-3.755-.209-7.51-.418-11.265-.627-3.474-.193-6.947-.395-10.416-.002-3.148.356-6.277,1.295-7.621,4.462-1.264,2.979.131,5.933,2.359,8.01,2.258,2.104,5.66-1.283,3.394-3.394-.641-.597-1.347-1.454-1.455-2.074-.079-.454.034-.786.443-1.215.632-.664,1.748-.843,2.647-.962,1.394-.184,2.811-.25,4.216-.262,5.889-.051,11.82.538,17.697.865,3.086.172,3.077-4.629,0-4.8h0Z"></path><path class="i" d="m153.88,212.587c-4.048-.485-8.098-.949-12.158-1.332-4.451-.42-9.76-1.519-13.482,1.676-3.637,3.123-1.84,8.315,1.935,10.328,1.785.952,3.894,1.179,5.86,1.526,2.236.395,4.477.761,6.709,1.176,1.273.237,2.588-.352,2.952-1.676.321-1.168-.395-2.714-1.676-2.952-3.433-.639-6.918-1.087-10.323-1.871-1.013-.233-2.545-.842-2.671-2.046-.103-.987,1.265-1.508,2.165-1.721,1.745-.413,3.682-.075,5.443.079,1.826.16,3.652.33,5.476.513,3.261.328,6.516.71,9.77,1.099,1.289.154,2.4-1.214,2.4-2.4,0-1.425-1.107-2.245-2.4-2.4h0Z"></path><path class="i" d="m140.173,225.232c-2.299,2.88-2.047,7.277-1.388,10.712.638,3.329,2.218,6.399,4.382,8.986,4.201,5.022,10.691,7.673,16.961,8.941,1.269.257,2.592-.366,2.952-1.676.325-1.184-.4-2.694-1.676-2.952-5.111-1.034-10.29-2.914-13.982-6.748-1.636-1.7-2.87-3.758-3.559-6.016-.5-1.638-.678-3.256-.662-4.963.007-.767-.088-2.318.367-2.888.808-1.012.989-2.406,0-3.394-.838-.838-2.581-1.018-3.394,0h0Z"></path><path class="i" d="m176.559,233.354c-.453,4.458-1.647,8.775-3.22,12.962-1.552,4.131-3.229,8.09-5.828,11.674-.761,1.05-.18,2.675.861,3.284,1.212.709,2.521.192,3.284-.861,2.831-3.906,4.621-8.322,6.312-12.821,1.734-4.615,2.893-9.33,3.391-14.238.131-1.291-1.197-2.4-2.4-2.4-1.407,0-2.268,1.105-2.4,2.4h0Z"></path></g></g></svg>