<svg id="b" xmlns="http://www.w3.org/2000/svg" width="290.796" height="281.66" viewBox="0 0 290.796 281.66"><defs><style>.g{fill:#fcdc4a;}.g,.h,.i{stroke-width:0px;}.h{fill:#fff;}.i{fill:#211715;}</style></defs><g id="c"><g id="d"><path class="h" d="m187.688,89.148c1.693-1.627,3.974-2.238,5.925-2.169,4.247.15,6.054,2.447,6.832,3.796,2.321,4.026,2.223,11.445.665,16.035-1.104,3.251-2.911,8.224-7.27,11.79-1.976,1.617-4.979,2.627-7.722,1.832-1.944,6.785-5.49,14.989-11.757,22.616-4.135,5.032-8.106,8.458-12.627,11.005v2.944c-5.75,4.545-22.038,17.37-23.483,18.394h-3.984c-1.525-1.081-19.591-15.312-24.341-19.072,0-.248,0-.613,0-1.048-5.062-2.766-9.661-6.876-14.055-12.223-6.245-7.6-9.788-15.774-11.737-22.545-2.67.659-5.545-.338-7.458-1.903-4.358-3.566-6.166-8.539-7.27-11.79-1.558-4.59-1.656-12.009.665-16.035.778-1.349,2.585-3.646,6.832-3.796,1.952-.069,4.232.542,5.925,2.169,0,0-14.137-51.375,50.975-51.375s53.884,51.375,53.884,51.375Z"></path><path class="h" d="m119.569,244.373c-7.23-22.32-14-46.54-19.48-69.73-.17-.69-.33-1.38-.49-2.07-.05-.22-.1-.43-.15-.64-.239-1.038-.478-2.066-.713-3.094.366-1.24.994-2.403,1.711-3.234,2.554-2.958,5.772-7.236,8.382-10.157,1.109.898,23.723,18.728,25.437,19.943h3.984c1.715-1.215,24.328-19.045,25.437-19.943,2.61,2.92,5.829,7.199,8.382,10.157.718.831,1.345,1.995,1.711,3.234-.235,1.028-.474,2.057-.713,3.094-.05.21-.1.42-.15.64-.17.73-.34,1.47-.52,2.21-5.48,23.15-12.24,47.32-19.45,69.59h-33.38Z"></path><path class="h" d="m104.987,244.373h14.582c-7.23-22.32-14-46.54-19.48-69.73-.17-.69-.33-1.38-.49-2.07-.05-.22-.1-.43-.15-.64-.35-1.52-.7-3.02-1.04-4.53-.16-.68-.94-1-1.53-.61-4.16,2.75-9.59,6.79-14.25,11.1-8.97,2.31-17.7,5.64-25.98,9.9-22.37,11.5-42.19,31.33-47.49,56.58h95.828Z"></path><path class="h" d="m165.896,244.373h-12.947c7.21-22.27,13.97-46.44,19.45-69.59.18-.74.35-1.48.52-2.21.05-.22.1-.43.15-.64.35-1.52.7-3.02,1.04-4.53.16-.68.94-1,1.53-.61,4.32,2.86,10.01,7.11,14.79,11.6,8.31,2.28,16.4,5.44,24.1,9.4,22.37,11.5,42.19,31.33,47.5,56.58h-96.133Z"></path><path class="h" d="m105.374,238.555c-.4-4.861-.708-9.815,1.095-14.903,3.155-8.244,7.922-11.642,19.126-13.208-.495-2.084,1.393-4.06,3.64-4.913,2.16-.82,4.582-1.001,6.943-1.13,3.431-.188,6.872-.455,10.308-.354,3.436.101,6.958.757,9.726,2.489,4.286,2.682,6.015,7.405,6.804,11.877.466,2.639.697,5.308.69,7.977-.01,3.816-.505,7.635-.202,11.443.506,6.365,3.281,12.593,7.912,17.622-.902,5.05-2.599,9.674-5.171,15.602-5.203-.535-12.48-1.284-12.48-1.284-4.586-.907-8.775-2.496-12.123-4.877l-1.606.842-24.74,12.969c-1.44.975-3.38.661-4.467-.696-3.281-4.096-6.181-8.412-8.664-12.896-.647-1.167-1.278-2.403-1.2-3.691.093-1.529,1.16-2.868,1.973-4.235,3.638-6.113,2.958-12.294,2.436-18.633Z"></path><g id="e"><path class="g" d="m134.305,54.333c-4.886-.893-19.496-1.538-23.816-1.087-2.789.291-5.68.903-7.847,2.708-2.877,2.397-3.878,6.335-5.56,9.705-2.92,5.849-9.791,8.869-10.881,15.42-.8,4.808-.786,6.614-1.234,11.848-1.156-4.5-5.012-6.055-8.063-5.947-1.52.054-2.727.382-3.686.844-2.047-7.481-3.064-15.101-3.126-21.55-.442-15.704,6.389-32.611,13.444-40.611,3.956-4.924,7.659-7.881,10.361-9.898,12.086-9.021,24.878-13.323,40.027-13.323,14.441,0,33.334,3.582,41.599,17.292l7.375,6.999c10.235,9.246,15.193,18.84,16.091,40.105.301,7.117-.528,12.93-2.477,20.658-.811-.286-1.769-.478-2.899-.517-1.952-.069-4.232.542-5.925,2.169,0,0-1.116,1.072-2.232,2.146l.003-.158c.233-11.256-3.926-24.197-12.69-31.785-.562-.486-1.145-.948-1.75-1.382-4.215-3.023-9.274-4.289-14.426-4.038,0,0-7.833,1.566-12.083,1.204-4.25-.362-10.203-.802-10.203-.802Z" style="fill: rgb(208, 208, 208);"></path><path class="g" d="m124.819,196.063c.71,2.28,1.43,4.63,1.47,7.03.007.396-.344,3.128-.926,7.388.08-.011.152-.025.233-.036-.495-2.084,1.393-4.06,3.64-4.913,2.16-.82,4.582-1.001,6.943-1.13,3.431-.188,6.872-.455,10.308-.354.355.01.712.031,1.068.054-.1-.842-.156-1.353-.156-1.447,0-1.34.9-5.15,1.02-5.75.571-2.714.843-4.117,1.355-6.692-3.78-5.111-8.642-11.579-11.523-14.82h-3.984c-2.833,3.187-7.581,9.493-11.332,14.562.01.027.014.041.014.041.716,2.197,1.29,4.21,1.87,6.07Z" style="fill: rgb(208, 208, 208);"></path><path class="g" d="m20.499,121.776c-.214.92-1.515.936-1.752.022-.991-3.82-2.529-8.383-4.865-11.103-2.85-3.318-6.968-4.727-10.785-5.547-.948-.204-.944-1.562.004-1.763,3.78-.801,7.947-2.212,10.718-5.203,2.638-2.847,4.127-8.576,4.961-12.463.202-.942,1.538-.957,1.761-.021.928,3.887,2.581,9.632,5.224,12.483,2.744,2.96,6.709,4.373,10.373,5.178.951.209.942,1.573-.013,1.764-3.913.784-8.203,2.127-11.051,5.444-2.335,2.719-3.677,7.353-4.575,11.206Z" style="fill: rgb(208, 208, 208);"></path><path class="g" d="m241.782,151.084c-.214.92-1.515.936-1.752.022-.991-3.82-2.529-8.383-4.865-11.103-2.85-3.318-6.968-4.727-10.785-5.547-.948-.204-.944-1.562.004-1.763,3.78-.801,7.947-2.212,10.718-5.203,2.638-2.847,4.127-8.576,4.961-12.463.202-.942,1.538-.957,1.761-.021.928,3.887,2.581,9.632,5.224,12.483,2.744,2.96,6.709,4.373,10.373,5.178.951.209.942,1.573-.013,1.764-3.913.784-8.203,2.127-11.051,5.444-2.335,2.719-3.677,7.353-4.575,11.206Z" style="fill: rgb(208, 208, 208);"></path><path class="g" d="m276.54,108.133c-.155.667-1.099.679-1.271.016-.719-2.771-1.835-6.082-3.529-8.055-2.068-2.407-5.055-3.429-7.825-4.024-.687-.148-.685-1.133.003-1.279,2.742-.581,5.766-1.605,7.776-3.775,1.914-2.065,2.994-6.222,3.599-9.042.147-.683,1.116-.694,1.278-.015.674,2.82,1.873,6.988,3.79,9.057,1.99,2.148,4.867,3.173,7.526,3.757.69.152.683,1.141-.01,1.28-2.839.569-5.951,1.543-8.018,3.95-1.694,1.972-2.668,5.334-3.319,8.13Z" style="fill: rgb(208, 208, 208);"></path></g></g><g id="f"><path class="i" d="m145.532,199.289c-5.894-.002-11.787-.123-17.681-.126-3.089-.001-3.094,4.799,0,4.8,5.894.002,11.787.123,17.681.126,3.089.001,3.094-4.799,0-4.8h0Z"></path><path class="i" d="m184.814,115.79c-1.479,6.717-3.998,13.156-7.566,19.042-3.776,6.228-8.752,12.133-14.94,16.078-3.147,2.006-6.55,3.463-10.09,4.616-2.925.952-1.673,5.589,1.276,4.629,6.957-2.265,13.223-5.732,18.459-10.888,6.096-6.002,10.771-13.311,14.035-21.193,1.474-3.559,2.626-7.246,3.455-11.008.663-3.01-3.963-4.296-4.629-1.276h0Z"></path><path class="i" d="m120.544,190.701c.595,1.794,1.193,3.588,1.767,5.39.602,1.89,1.278,3.834,1.506,5.813.115.995.017,1.908-.104,2.893-.209,1.708-.443,3.412-.676,5.117-.175,1.283.31,2.577,1.676,2.952,1.12.308,2.776-.384,2.952-1.676.276-2.021.554-4.042.807-6.066.143-1.149.256-2.192.127-3.352-.472-4.235-2.093-8.324-3.428-12.347-.408-1.23-1.656-2.032-2.952-1.676-1.203.331-2.086,1.717-1.676,2.952h0Z"></path><path class="i" d="m92.251,243.162c-4.57-8.307-9.069-16.654-13.458-25.058-1.032-1.976-2.058-3.955-3.077-5.937-.311-.604-1.156-1.666-1.029-2.375.123-.686,1.34-1.553,1.803-2.038,3.142-3.285,6.436-6.42,9.746-9.533,1.123-1.056.826-3.021-.486-3.769-1.843-1.052-3.687-2.102-5.531-3.153-.851-.485-1.702-.97-2.553-1.455-.425-.242-.851-.485-1.276-.728-.283-.162-.567-.323-.85-.485-.368-.215-.381-.231-.039-.049l.328,1.211c.009.27.072-.199.158-.364.139-.265.284-.527.435-.785.289-.492.599-.972.923-1.441.679-.984,1.431-1.906,2.22-2.804,1.941-2.208,4.08-4.239,6.282-6.184,2.049-1.81,4.17-3.54,6.354-5.184,1.008-.759,2.028-1.503,3.059-2.231.533-.376,1.069-.748,1.608-1.116.206-.14.412-.28.619-.418.151-.101.302-.202.453-.302.484-.288.146-.28-1.013.024l-.861-.861c.279.366.483,1.91.649,2.627.205.888.411,1.776.617,2.663.471,2.029.96,4.055,1.45,6.08.991,4.098,2.011,8.188,3.061,12.271,2.159,8.399,4.439,16.767,6.831,25.103.851,2.964,5.484,1.704,4.629-1.276-4.071-14.186-7.821-28.465-11.197-42.832-.363-1.546-.72-3.093-1.074-4.641-.425-1.856-1.112-3.734-3.353-3.867-1.527-.091-2.674.896-3.865,1.72-1.245.861-2.473,1.745-3.686,2.651-5.57,4.162-11.159,8.701-15.47,14.2-1.918,2.446-5.666,6.964-2.091,9.573,1.606,1.172,3.503,2.06,5.231,3.044,1.844,1.05,3.687,2.101,5.531,3.153l-.486-3.769c-3.652,3.435-7.285,6.895-10.713,10.555-1.66,1.772-2.773,3.777-1.978,6.243.754,2.341,2.258,4.597,3.389,6.774,4.74,9.123,9.611,18.178,14.567,27.186,1.489,2.707,5.636.288,4.145-2.423h0Z"></path><path class="i" d="m134.718,108.804c.449,1.711.879,3.448,1.136,5.199l-.086-.638c.03.24.044.476.019.718l.086-.638c-.017.112-.041.216-.079.323l.242-.573c-.033.075-.068.139-.114.208l.375-.486c-.053.065-.104.115-.17.167l.486-.375c-.131.084-.27.153-.412.218l.573-.242c-.227.095-.451.164-.694.202l.638-.086c-.219.026-.433.024-.651-.001l.638.086c-.246-.034-.487-.094-.732-.127-.67-.09-1.239-.115-1.849.242-.498.291-.973.862-1.103,1.434-.14.614-.11,1.304.242,1.849.312.484.835,1.022,1.434,1.103.535.072,1.055.209,1.6.233.823.036,1.591-.213,2.328-.549.903-.412,1.607-1.21,1.847-2.183.203-.823.114-1.558-.025-2.382-.283-1.675-.67-3.335-1.101-4.978-.318-1.214-1.729-2.072-2.952-1.676-1.25.404-2.018,1.651-1.676,2.952h0Z"></path><path class="i" d="m106.973,94.152c-.868,2.821-.302,9.312,5.043,9.864,7.065-.042,7.44-7.889,5.062-11.578-1.947-3.021-7.672-4.277-10.105,1.715Z"></path><path class="i" d="m163.545,94.152c.868,2.821.303,9.312-5.042,9.864-7.065-.043-7.441-7.889-5.063-11.579,1.947-3.021,7.672-4.277,10.105,1.715Z"></path><path class="i" d="m84.527,87.451c-3.438-3.121-8.556-3.74-12.69-1.616-2.983,1.532-4.648,4.612-5.361,7.776-1.696,7.532.223,16.069,4.625,22.385,3.108,4.459,7.523,7.72,13.181,6.929,1.285-.18,1.988-1.819,1.676-2.952-.38-1.383-1.663-1.857-2.952-1.676-3.178.445-5.967-2.202-7.65-4.568-1.638-2.303-2.75-4.886-3.634-7.556-.964-2.914-1.211-6.028-.957-9.078.116-1.396.384-2.832.906-4.137.176-.44.397-.862.65-1.262.102-.162.209-.323.325-.475-.281.367.255-.255.353-.355.718-.73,1.997-1.291,3.268-1.444,1.754-.211,3.542.223,4.866,1.424,2.283,2.072,5.687-1.312,3.394-3.394h0Z"></path><path class="i" d="m189.385,90.845c2.047-1.859,5.508-1.988,7.732-.345.123.091.597.551.868.873-.247-.293.031.04.112.168.12.19.239.379.348.576.671,1.209.999,2.628,1.2,3.985.842,5.691-.731,11.688-3.753,16.532-1.721,2.758-4.732,6.172-8.379,5.662-1.282-.179-2.578.312-2.952,1.676-.309,1.123.384,2.772,1.676,2.952,9.354,1.309,14.761-7.976,17.237-15.625,1.25-3.86,1.434-8.122.854-12.117-.494-3.406-1.813-6.686-4.675-8.748-4.077-2.937-10.037-2.274-13.661,1.017-2.292,2.081,1.11,5.467,3.394,3.394h0Z"></path><path class="i" d="m199.002,87.429c1.322-5.394,2.306-10.883,2.431-16.448.118-5.242-.343-10.538-1.091-15.723-1.092-7.568-3.369-15.055-7.797-21.368-2.29-3.264-5.001-6.179-7.95-8.854-2.284-2.071-5.688,1.313-3.394,3.394,4.831,4.382,8.873,9.314,11.257,15.282,3.151,7.888,4.081,16.687,4.186,25.118.074,5.891-.871,11.616-2.27,17.323-.735,3,3.892,4.28,4.629,1.276h0Z"></path><path class="i" d="m177.596,18.522c-5.401-8.833-14.862-13.85-24.665-16.29-10.341-2.574-21.496-2.914-31.978-1.062-11.486,2.029-22.07,7.376-31.08,14.703-8.911,7.246-14.982,16.924-18.591,27.752-2.238,6.717-3.573,13.84-3.61,20.93-.04,7.682,1.029,15.375,2.939,22.808.768,2.99,5.399,1.722,4.629-1.276-3.096-12.049-3.848-24.61-.661-36.715,2.765-10.505,7.794-20.048,15.746-27.534,7.538-7.095,17.15-12.44,27.239-15.032,9.712-2.495,20.234-2.606,30.086-.807,9.949,1.817,20.304,5.951,25.803,14.944,1.609,2.631,5.762.222,4.145-2.423h0Z"></path><path class="i" d="m134.943,52.018c-4.193-.747-8.512-.942-12.759-1.133-3.991-.18-8.112-.454-12.094.004-3.165.363-6.287,1.092-8.83,3.117-2.363,1.881-3.686,4.594-4.851,7.311-1.014,2.366-2.031,4.589-3.746,6.535-1.637,1.857-3.498,3.506-5.086,5.407-2.022,2.419-3.349,4.98-3.84,8.11-.529,3.377-.784,6.765-1.055,10.17-.103,1.294,1.177,2.4,2.4,2.4,1.384,0,2.297-1.103,2.4-2.4.375-4.723.087-10.377,3.052-14.338,2.872-3.838,6.865-6.561,8.949-11.013,1.109-2.369,1.906-5.006,3.492-7.121s4.034-2.912,6.553-3.301c3.655-.564,7.511-.282,11.188-.142,2.512.095,5.023.232,7.529.427,1.109.086,2.217.183,3.322.305.163.018.326.036.489.055.095.011,1.047.136.482.057.377.053.754.112,1.129.179,1.275.227,2.587-.345,2.952-1.676.319-1.161-.393-2.724-1.676-2.952h0Z"></path><path class="i" d="m150.978,54.497c-.806-3.431-3.501-6.351-6.201-8.452-4.479-3.485-9.808-5.302-15.392-6.036-1.287-.169-2.4,1.224-2.4,2.4,0,1.437,1.109,2.23,2.4,2.4,2.464.324,4.936.99,7.231,1.942.64.265,1.875.883,2.702,1.362.453.263.898.54,1.334.831.226.151.449.306.67.464.073.053.597.444.238.167.722.556,1.405,1.169,2.043,1.819.27.275.532.559.784.851.14.162.275.329.411.495.11.138.076.093-.102-.134.07.092.138.185.206.279.39.567.762,1.138,1.066,1.757.062.126.112.262.179.385-.318-.582-.098-.26-.041-.075.084.275.178.541.244.821.296,1.262,1.737,2.01,2.952,1.676,1.292-.355,1.974-1.686,1.676-2.952h0Z"></path><path class="i" d="m187.859,91.136c.117-7.073-1.319-14.124-4.16-20.596-2.858-6.512-7.598-12.869-14.017-16.208-4.032-2.098-8.562-2.983-13.089-2.8-3.078.125-3.094,4.925,0,4.8,3.379-.137,6.82.319,9.908,1.769,3.021,1.419,5.541,3.583,7.704,6.101,4.047,4.712,6.538,10.673,7.856,16.695.738,3.368,1.056,6.793.999,10.24-.051,3.09,4.749,3.091,4.8,0h0Z"></path><path class="i" d="m170.136,174.382c-2.384,3.786-4.919,7.492-7.651,11.037-2.578,3.346-5.661,7.205-9.008,9.392l3.284.861c-5.493-7.38-10.716-15.072-16.815-21.976l-.486,3.769c3.229-2.308,6.3-4.87,9.422-7.318,4.351-3.413,8.696-6.833,13.036-10.26,1.157-.914,2.322-1.82,3.469-2.747h-3.394c1.784,2.009,3.45,4.118,5.133,6.211.798.994,1.598,1.986,2.414,2.965.347.416.72.814,1.026,1.261.19.278.363.574.51.877.06.123.304.919.304.378,0,3.089,4.8,3.094,4.8,0,0-1.495-1.107-3.248-1.992-4.396-.924-1.199-1.937-2.334-2.888-3.511-1.949-2.411-3.854-4.861-5.913-7.18-.924-1.041-2.436-.775-3.394,0-7.115,5.752-14.362,11.352-21.578,16.977-.456.356-.913.711-1.37,1.066-.189.146-.377.292-.566.439-.534.414.323-.247-.174.134-.42.322-.836.651-1.266.959-1.305.933-1.578,2.533-.486,3.769,5.83,6.598,10.814,13.95,16.065,21.004.743.999,2.101,1.634,3.284.861,4.079-2.666,7.261-6.628,10.211-10.441,2.913-3.765,5.633-7.681,8.17-11.71,1.651-2.622-2.501-5.033-4.145-2.423h0Z"></path><path class="i" d="m131.437,176.236c.537.414,1.072.83,1.62,1.23l-.486-3.769c-1.389,1.557-2.687,3.196-3.97,4.84-.409.524-.703,1.002-.703,1.697,0,.589.261,1.292.703,1.697.457.42,1.058.732,1.697.703.59-.026,1.316-.214,1.697-.703,1.283-1.644,2.581-3.283,3.97-4.84.52-.583.765-1.236.66-2.016-.106-.791-.515-1.293-1.146-1.753-.548-.4-1.083-.816-1.62-1.23-.457-.352-1.323-.387-1.849-.242-.557.153-1.16.584-1.434,1.103-.294.557-.442,1.232-.242,1.849l.242.573c.213.361.5.648.861.861h0Z"></path><path class="i" d="m78.889,179.143v.002c.028-.213.057-.425.085-.638v.002c.08-.191.161-.382.241-.573v.002c.124-.162.249-.324.374-.486h-.001c.162-.124.324-.249.486-.374,0,0-.002.001-.003.002l.573-.242s-.002,0-.003,0l.638-.086s0,0,0,0c-.33-.012-.639.056-.925.207-.298.097-.555.262-.772.496-.234.217-.399.475-.496.772-.15.286-.219.594-.207.925l.086.638c.114.407.32.76.617,1.059l.486.375c.374.217.778.326,1.211.328.002,0,.638-.085.64-.086.011-.003.568-.238.578-.244.001,0,.486-.375.487-.376.001-.001.375-.486.376-.487.001-.002.242-.573.243-.575.003-.009.085-.633.086-.642.012-.33-.056-.639-.207-.925-.097-.298-.262-.555-.496-.772-.217-.234-.475-.399-.772-.496-.286-.15-.594-.219-.925-.207l-.638.086c-.407.114-.76.32-1.059.617l-.375.486c-.217.374-.326.778-.328,1.211h0Z"></path><path class="i" d="m11.473,245.011c2.589-12.156,8.643-23.25,16.851-32.528,8.331-9.417,18.571-17.002,29.741-22.723,7.678-3.932,15.752-7.013,24.081-9.253,2.98-.801,1.715-5.433-1.276-4.629-14.127,3.799-27.793,9.966-39.651,18.575-10.568,7.673-19.892,17.243-26.407,28.622-3.68,6.428-6.425,13.411-7.969,20.659-.642,3.013,3.984,4.3,4.629,1.276h0Z"></path><path class="i" d="m189.791,180.707c25.046,6.923,49.407,21.917,62.526,44.954,3.444,6.047,5.946,12.542,7.398,19.35.644,3.019,5.272,1.742,4.629-1.276-2.726-12.777-9.166-24.428-17.722-34.222-8.502-9.733-19.098-17.684-30.551-23.621-7.962-4.127-16.361-7.424-25.004-9.812-2.982-.824-4.254,3.805-1.276,4.629h0Z"></path><path class="i" d="m101.139,168.833c0,.521.155-.1.213-.189.184-.284.31-.612.493-.901.293-.463.661-.861,1.012-1.28.859-1.025,1.698-2.068,2.536-3.111,1.682-2.093,3.349-4.202,5.133-6.211h-3.394c6.624,5.315,13.331,10.531,20.021,15.762,1.958,1.531,3.902,3.09,5.905,4.563l-.486-3.769c-6.113,6.887-11.322,14.598-16.815,21.976l3.284-.861c-3.344-2.186-6.426-6.04-9.003-9.383-2.731-3.544-5.265-7.249-7.646-11.036l.328,1.211v-.01c0-3.089-4.8-3.094-4.8,0,0,1.092.907,2.143,1.48,3.026.627.966,1.265,1.924,1.913,2.875,1.504,2.208,3.062,4.38,4.69,6.499,3.066,3.991,6.354,8.177,10.615,10.962,1.171.765,2.541.136,3.284-.861,5.25-7.051,10.222-14.422,16.065-21.004,1.107-1.247.802-2.822-.486-3.769-7.411-5.451-14.692-11.465-21.974-17.216-.994-.785-1.992-1.566-2.98-2.359-.964-.773-2.459-1.053-3.394,0-2.059,2.319-3.965,4.769-5.913,7.18-.888,1.099-1.819,2.165-2.701,3.268-.964,1.205-2.179,3.038-2.179,4.639,0,3.089,4.8,3.094,4.8,0h0Z"></path><path class="i" d="m80.79,117.066c1.718,7.799,4.834,15.365,9.221,22.044,4.68,7.125,10.84,13.81,18.325,18.03,3.811,2.149,7.983,3.613,12.308,4.272,1.28.195,2.58-.323,2.952-1.676.312-1.135-.387-2.756-1.676-2.952-15.542-2.369-27.115-15.986-32.973-29.808-1.527-3.602-2.687-7.367-3.529-11.186-.664-3.015-5.293-1.739-4.629,1.276h0Z"></path><path class="i" d="m164.353,215.091c2.282-8.02,4.465-16.068,6.534-24.145,1.004-3.92,1.982-7.848,2.932-11.782.478-1.983.95-3.967,1.414-5.953.191-.818.38-1.637.569-2.456.166-.717.37-2.261.649-2.627l-.861.861c-.314.238-1.778-.537-.716.174.255.171.51.343.763.516.479.327.956.658,1.431.992,1.018.716,2.024,1.448,3.02,2.195,2.224,1.667,4.385,3.419,6.472,5.254,2.156,1.895,4.247,3.878,6.157,6.022.815.915,1.603,1.856,2.309,2.859.372.529.727,1.07,1.056,1.627.124.21.245.423.361.638.085.156.167.313.245.473.107.189.107.208,0,.056l.328-1.211c.342-.182.329-.166-.039.049-.213.121-.425.243-.638.364-.425.243-.851.485-1.276.727-.922.526-1.844,1.051-2.766,1.576-1.844,1.05-3.687,2.101-5.531,3.153-1.312.749-1.608,2.713-.486,3.769,3.31,3.114,6.605,6.248,9.746,9.533.475.497,1.597,1.295,1.776,1.976.19.726-.68,1.812-1.001,2.437-1.019,1.982-2.045,3.961-3.077,5.937-4.39,8.404-8.888,16.751-13.458,25.058-1.49,2.708,2.654,5.133,4.145,2.423,4.955-9.008,9.827-18.062,14.567-27.186,1.131-2.178,2.635-4.433,3.389-6.774.792-2.459-.32-4.473-1.978-6.243-3.428-3.66-7.061-7.12-10.713-10.555l-.486,3.769c3.261-1.86,6.533-3.702,9.785-5.577,1.384-.798,2.599-1.848,2.527-3.606-.065-1.584-1.231-3.229-2.102-4.506-3.788-5.554-9.058-10.098-14.317-14.213-2.482-1.943-5.019-3.816-7.635-5.574-1.297-.872-2.749-1.23-4.173-.356-1.594.978-1.719,3.062-2.1,4.715-1.594,6.908-3.273,13.797-5.037,20.664-2.033,7.919-4.175,15.809-6.413,23.672-.847,2.976,3.783,4.247,4.629,1.276h0Z"></path><path class="i" d="m149.949,204.093c-.056-.475-.141-.961-.15-1.44-.004-.209.023-.417.041-.624.017-.204.147-.423-.024.148.036-.12.039-.259.058-.383.174-1.093.405-2.177.642-3.258.559-2.555,1.059-5.122,1.577-7.686.248-1.227-.353-2.651-1.676-2.952-1.195-.272-2.686.36-2.952,1.676-.527,2.608-1.04,5.219-1.606,7.819-.237,1.088-.469,2.179-.637,3.28-.188,1.228-.216,2.199-.072,3.419.146,1.242.999,2.463,2.4,2.4,1.174-.053,2.557-1.065,2.4-2.4h0Z"></path><path class="i" d="m18.184,121.138v-.13c.287-.287.574-.574.861-.861.517-.143,1.017-.076,1.499.2l.617,1.059c-.846-2.066-1.247-4.318-2.107-6.399-.919-2.225-2.005-4.347-3.611-6.161-1.516-1.713-3.48-3.068-5.556-4.012-1.06-.482-2.146-.908-3.258-1.253-.771-.239-2.459-.509-2.776-.746l.861.861c.097.381.098.762.003,1.143l-.861.861c.378-.281,2.211-.556,3.042-.816,1.198-.376,2.372-.837,3.509-1.369,2.273-1.065,4.372-2.598,5.9-4.602,1.425-1.87,2.351-4.079,3.108-6.292.366-1.071.684-2.158.969-3.252.15-.573.29-1.149.424-1.726.05-.218.1-.436.148-.655.037-.168.252-.667.135-.509l-.861.861c-.511.134-1.006.069-1.484-.195l-.617-1.059c.791,2.033,1.124,4.274,1.868,6.341.783,2.174,1.7,4.377,3.088,6.241,1.464,1.967,3.419,3.527,5.6,4.641,1.174.6,2.411,1.101,3.663,1.514.823.272,2.655.569,3.034.856l-.861-.861c-.097-.379-.1-.76-.009-1.141l.861-.861c.174-.127-.097.045-.243.068-.3.047-.603.129-.899.198-.486.112-.969.234-1.449.368-1.139.318-2.244.716-3.332,1.179-2.163.92-4.212,2.205-5.811,3.948-3.121,3.405-4.423,8.172-5.455,12.561-.707,3.004,3.92,4.287,4.629,1.276.854-3.632,1.786-7.97,4.491-10.729,1.323-1.349,3.003-2.323,4.77-2.972.945-.347,1.913-.631,2.89-.874.961-.239,1.987-.331,2.831-.878,2.25-1.457,1.691-4.951-.763-5.819-1.918-.678-3.901-.971-5.748-1.89-1.649-.821-3.257-1.891-4.344-3.408s-1.829-3.297-2.444-5.057c-.64-1.833-1.044-3.717-1.604-5.57-.681-2.255-3.38-3.51-5.328-1.835-1.475,1.268-1.551,3.818-2.05,5.605-.515,1.843-1.105,3.684-1.998,5.383-1.844,3.511-5.315,5.207-9.016,6.212-.925.251-2.029.334-2.868.825-1.049.614-1.668,1.774-1.631,2.976.084,2.771,2.726,3.066,4.807,3.665,2.064.594,4.119,1.432,5.801,2.798,1.773,1.44,2.922,3.375,3.817,5.45.459,1.065.837,2.168,1.186,3.274s.531,2.356,1.041,3.399c.591,1.208,1.741,1.918,3.09,1.89,1.535-.031,2.555-1.096,3.069-2.445.461-1.212-.511-2.632-1.676-2.952-1.351-.371-2.489.46-2.952,1.676Z"></path><path class="i" d="m239.468,150.446v-.13c.287-.287.574-.574.861-.861.517-.143,1.017-.076,1.499.2l.617,1.059c-.846-2.066-1.247-4.318-2.107-6.399-.919-2.225-2.005-4.347-3.611-6.161-1.516-1.713-3.48-3.068-5.556-4.012-1.06-.482-2.146-.908-3.258-1.253-.771-.239-2.459-.509-2.776-.746l.861.861c.097.381.098.762.003,1.143l-.861.861c.378-.281,2.211-.556,3.042-.816,1.198-.376,2.372-.837,3.509-1.369,2.273-1.065,4.372-2.598,5.9-4.602,1.425-1.87,2.351-4.079,3.108-6.292.366-1.071.684-2.158.969-3.252.15-.573.29-1.149.424-1.726.05-.218.1-.436.148-.655.037-.168.252-.667.135-.509l-.861.861c-.511.134-1.006.069-1.484-.195l-.617-1.059c.791,2.033,1.124,4.274,1.868,6.341.783,2.174,1.7,4.377,3.088,6.241,1.464,1.967,3.419,3.527,5.6,4.641,1.174.6,2.411,1.101,3.663,1.514.823.272,2.655.569,3.034.856l-.861-.861c-.097-.379-.1-.76-.009-1.141l.861-.861c.174-.127-.097.045-.243.068-.3.047-.603.129-.899.198-.486.112-.969.234-1.449.368-1.139.318-2.244.716-3.332,1.179-2.163.92-4.212,2.205-5.811,3.948-3.121,3.405-4.423,8.172-5.455,12.561-.707,3.004,3.92,4.287,4.629,1.276.854-3.632,1.786-7.97,4.491-10.729,1.323-1.349,3.003-2.323,4.77-2.972.945-.347,1.913-.631,2.89-.874.961-.239,1.987-.331,2.831-.878,2.25-1.457,1.691-4.951-.763-5.819-1.918-.678-3.901-.971-5.748-1.89-1.649-.821-3.257-1.891-4.344-3.408s-1.829-3.297-2.444-5.057c-.64-1.833-1.044-3.717-1.604-5.57-.681-2.255-3.38-3.51-5.328-1.835-1.475,1.268-1.551,3.818-2.05,5.605-.515,1.843-1.105,3.684-1.998,5.383-1.844,3.511-5.315,5.207-9.016,6.212-.925.251-2.029.334-2.868.825-1.049.614-1.668,1.774-1.631,2.976.084,2.771,2.726,3.066,4.807,3.665,2.064.594,4.119,1.432,5.801,2.798,1.773,1.44,2.922,3.375,3.817,5.45.459,1.065.837,2.168,1.186,3.274s.531,2.356,1.041,3.399c.591,1.208,1.741,1.918,3.09,1.89,1.535-.031,2.555-1.096,3.069-2.445.461-1.212-.511-2.632-1.676-2.952-1.351-.371-2.489.46-2.952,1.676Z"></path><path class="i" d="m274.468,106.922l.085-.075,1.059-.617.595.009,1.059.617c.257.413.297.387.121-.078-.052-.188-.105-.375-.16-.562-.13-.446-.267-.89-.415-1.331-.279-.833-.598-1.65-.945-2.458-.676-1.573-1.515-3.065-2.693-4.323-1.171-1.251-2.65-2.235-4.211-2.926-1.506-.667-3.133-.904-4.635-1.513l1.059.617.328.51v1.276l-.326.511-1.059.617c.76-.305,1.62-.406,2.406-.648.932-.287,1.847-.644,2.731-1.055,1.735-.808,3.338-1.973,4.509-3.495,1.092-1.418,1.8-3.075,2.384-4.758.544-1.569.724-3.325,1.338-4.851l-.617,1.059-.516.323h-1.276c-.822-1.068-1.115-1.251-.879-.549.055.219.111.439.169.657.091.345.186.69.285,1.033.243.841.512,1.677.822,2.496.615,1.626,1.324,3.207,2.391,4.589,1.113,1.44,2.605,2.583,4.233,3.389.879.435,1.805.809,2.738,1.112.794.257,1.661.368,2.427.683l-1.059-.617-.33-.507v-1.276l.321-.513,1.059-.617c-1.54.6-3.206.802-4.75,1.467-1.589.684-3.101,1.622-4.291,2.895-2.399,2.566-3.412,6.145-4.2,9.483-.709,3.004,3.918,4.286,4.629,1.276.665-2.816,1.384-6.294,3.816-8.16.984-.755,2.148-1.253,3.323-1.617,1.591-.494,3.565-.502,4.445-2.156.944-1.775-.084-3.795-1.914-4.38-1.407-.45-2.817-.692-4.14-1.396-2.587-1.377-3.703-3.672-4.568-6.361-.419-1.303-.558-3.004-1.269-4.176-1.04-1.714-3.513-1.934-4.862-.473-.927,1.005-1.003,2.683-1.351,3.948-.398,1.451-.853,2.906-1.595,4.222-1.385,2.456-4.129,3.467-6.74,4.091-1.81.433-3.377,1.664-2.914,3.753.415,1.872,1.973,2.214,3.588,2.654,3.267.891,5.552,2.615,6.89,5.762.337.793.609,1.617.863,2.439.269.869.402,1.9.885,2.681,1.201,1.943,4.338,1.883,5.299-.259.531-1.182.341-2.581-.861-3.284-1.026-.6-2.75-.327-3.284.861Z"></path><path class="i" d="m125.662,132.88c3.165,1.671,6.574,2.368,10.151,2.344,3.615-.023,7.292-.724,10.19-2.982,1.023-.797.837-2.557,0-3.394-1.01-1.01-2.368-.799-3.394,0,.712-.554.1-.089-.082.028-.206.132-.419.255-.636.369-.152.08-.902.392-.299.162-.291.111-.581.223-.878.319-1.868.601-3.241.711-5.232.699-1.949-.012-3.172-.128-4.991-.672-.321-.096-.635-.211-.952-.32-.103-.035-.202-.089-.307-.119.592.173.176.079.018.004-.394-.185-.781-.379-1.166-.582-1.146-.605-2.61-.291-3.284.861-.634,1.084-.289,2.676.861,3.284h0Z"></path><path class="i" d="m171.518,251.885c-3.484-4.671-5.589-10.103-5.705-15.958-.063-3.183.286-6.356.293-9.538.007-3.113-.299-6.251-.905-9.305-1.016-5.119-3.472-10.124-8.128-12.832-5.378-3.128-11.974-2.761-17.952-2.422-3.474.197-7.228.132-10.524,1.386-2.877,1.095-5.761,3.611-5.452,6.985.118,1.291,1.018,2.4,2.4,2.4,1.207,0,2.519-1.102,2.4-2.4-.184-2.01,2.701-2.697,4.236-2.998,2.736-.537,5.635-.513,8.413-.653,4.925-.247,10.936-.666,15.103,2.527,3.474,2.662,4.659,7.242,5.229,11.372.791,5.727-.247,11.417.161,17.144.431,6.059,2.66,11.851,6.286,16.714.774,1.037,2.076,1.567,3.284.861,1.023-.598,1.64-2.239.861-3.284h0Z"></path><path class="i" d="m148.226,210.627c-3.682-.153-7.367-.152-11.048.025-3.395.162-7.071.204-10.367,1.099-2.502.679-4.779,2.199-5.489,4.811-.779,2.865.844,5.405,3.282,6.803,2.684,1.54,5.105-2.606,2.423-4.145-.265-.152-.755-.456-.847-.565-.112-.133-.171-.302-.267-.444.193.285-.015-.281.007-.012-.008-.103.009-.231.032-.362.074-.417-.08.087.026-.125.063-.125.135-.242.206-.363.132-.227-.263.214.052-.068.038-.034.333-.297.247-.232.196-.148.717-.39,1.061-.509,1.107-.385,2.282-.516,3.441-.632,5.728-.57,11.49-.72,17.242-.481,3.089.128,3.083-4.672,0-4.8h0Z"></path><path class="i" d="m149.499,220.316c-3.755-.209-7.51-.418-11.265-.627-3.474-.193-6.947-.395-10.416-.002-3.148.356-6.277,1.295-7.621,4.462-1.264,2.979.131,5.933,2.359,8.01,2.258,2.104,5.66-1.283,3.394-3.394-.641-.597-1.347-1.454-1.455-2.074-.079-.454.034-.786.443-1.215.632-.664,1.748-.843,2.647-.962,1.394-.184,2.811-.25,4.216-.262,5.889-.051,11.82.538,17.697.865,3.086.172,3.077-4.629,0-4.8h0Z"></path><path class="i" d="m146.88,230.802c-4.048-.485-8.098-.949-12.158-1.332-4.451-.42-9.76-1.519-13.482,1.676-3.637,3.123-1.84,8.315,1.935,10.328,1.785.952,3.894,1.179,5.86,1.526,2.236.395,4.477.761,6.709,1.176,1.273.237,2.588-.352,2.952-1.676.321-1.168-.395-2.714-1.676-2.952-3.433-.639-6.918-1.087-10.323-1.871-1.013-.233-2.545-.842-2.671-2.046-.103-.987,1.265-1.508,2.165-1.721,1.745-.413,3.682-.075,5.443.079,1.826.16,3.652.33,5.476.513,3.261.328,6.516.71,9.77,1.099,1.289.154,2.4-1.214,2.4-2.4,0-1.425-1.107-2.245-2.4-2.4h0Z"></path><path class="i" d="m133.173,243.447c-2.299,2.88-2.047,7.277-1.388,10.712.638,3.329,2.218,6.399,4.382,8.986,4.201,5.022,10.691,7.673,16.961,8.941,1.269.257,2.592-.366,2.952-1.676.325-1.184-.4-2.694-1.676-2.952-5.111-1.034-10.29-2.914-13.982-6.748-1.636-1.7-2.87-3.758-3.559-6.016-.5-1.638-.678-3.256-.662-4.963.007-.767-.088-2.318.367-2.888.808-1.012.989-2.406,0-3.394-.838-.838-2.581-1.018-3.394,0h0Z"></path><path class="i" d="m169.559,251.569c-.453,4.458-1.647,8.775-3.22,12.962-1.552,4.131-3.229,8.09-5.828,11.674-.761,1.05-.18,2.675.861,3.284,1.212.709,2.521.192,3.284-.861,2.831-3.906,4.621-8.322,6.312-12.821,1.734-4.615,2.893-9.33,3.391-14.238.131-1.291-1.197-2.4-2.4-2.4-1.407,0-2.268,1.105-2.4,2.4h0Z"></path><path class="i" d="m124.219,208.237c-4.329.668-8.87,1.731-12.508,4.298-3.325,2.346-5.532,5.601-7.088,9.318-2.225,5.316-2.113,11.055-1.65,16.692.428,5.213,1.066,10.757-1.178,15.672-1.215,2.662-3.5,4.921-3.184,8.055.3,2.977,2.468,5.877,4.022,8.348,1.656,2.633,3.454,5.17,5.357,7.629.856,1.106,1.652,2.21,2.949,2.831,1.327.635,2.832.757,4.239.315,1.859-.584,3.714-1.869,5.425-2.766,2.886-1.513,5.773-3.026,8.659-4.539,3.995-2.094,7.99-4.189,11.986-6.283,2.737-1.435.313-5.579-2.423-4.145-7.916,4.15-15.833,8.3-23.749,12.45-.395.207-.899.584-1.331.71-.775.226-1.196-.479-1.65-1.055-.872-1.105-1.709-2.239-2.523-3.388-1.669-2.356-3.229-4.791-4.667-7.296-.567-.988-1.569-2.257-1.54-3.449.025-1.046.916-2.044,1.438-2.896,2.858-4.665,3.593-9.984,3.328-15.366-.249-5.058-1.221-10.251-.335-15.295.745-4.243,2.606-8.281,5.793-10.98,1.056-.894,2.972-1.922,4.456-2.462,2.405-.875,4.927-1.383,7.451-1.772,1.282-.198,1.991-1.806,1.676-2.952-.376-1.369-1.666-1.875-2.952-1.676h0Z"></path></g></g></svg>